<?xml version="1.0" encoding="UTF-8" standalone="no"?>
<svg
   xmlns:dc="http://purl.org/dc/elements/1.1/"
   xmlns:cc="http://creativecommons.org/ns#"
   xmlns:rdf="http://www.w3.org/1999/02/22-rdf-syntax-ns#"
   xmlns:svg="http://www.w3.org/2000/svg"
   xmlns="http://www.w3.org/2000/svg"
   xmlns:sodipodi="http://sodipodi.sourceforge.net/DTD/sodipodi-0.dtd"
   xmlns:inkscape="http://www.inkscape.org/namespaces/inkscape"
   version="1.1"
   width="640"
   height="360"
   viewBox="0 0 66666.713 37500.036"
   id="svg3397"
   sodipodi:docname="lm3914-high-voltage.svg"
   inkscape:version="0.92.4 (5da689c313, 2019-01-14)">
  <metadata
     id="metadata3403">
    <rdf:RDF>
      <cc:Work
         rdf:about="">
        <dc:format>image/svg+xml</dc:format>
        <dc:type
           rdf:resource="http://purl.org/dc/dcmitype/StillImage" />
        <dc:title>SVG Picture created as lm3914-high-voltage.svg date 2019/05/28 10:57:56 </dc:title>
      </cc:Work>
    </rdf:RDF>
  </metadata>
  <defs
     id="defs3401" />
  <sodipodi:namedview
     pagecolor="#ffffff"
     bordercolor="#666666"
     borderopacity="1"
     objecttolerance="10"
     gridtolerance="10"
     guidetolerance="10"
     inkscape:pageopacity="0"
     inkscape:pageshadow="2"
     inkscape:window-width="1920"
     inkscape:window-height="1043"
     id="namedview3399"
     showgrid="false"
     units="px"
     inkscape:zoom="0.70109659"
     inkscape:cx="570.5348"
     inkscape:cy="396.86362"
     inkscape:window-x="0"
     inkscape:window-y="0"
     inkscape:window-maximized="1"
     inkscape:current-layer="svg3397" />
  <title
     id="title815">SVG Picture created as lm3914-high-voltage.svg date 2019/05/28 10:57:56 </title>
  <desc
     id="desc817">Picture generated by Eeschema-SVG </desc>
  <g
     id="g3673"
     transform="matrix(1.3,0,0,1.3,-11173.189,-15988.351)">
    <g
       transform="translate(-38184.262,736.82003)"
       id="g2855"
       style="fill:#008400;fill-opacity:0;stroke:#008400;stroke-width:0;stroke-linecap:round;stroke-linejoin:round;stroke-opacity:1">
      <g
         id="g2839" />
      <g
         id="g2841"
         style="fill:#840000;fill-opacity:0;stroke:#840000;stroke-width:0;stroke-linecap:round;stroke-linejoin:round;stroke-opacity:1" />
      <g
         id="g2845"
         style="fill:#840000;fill-opacity:0;stroke:#840000;stroke-width:60;stroke-linecap:round;stroke-linejoin:round;stroke-opacity:1">
        <path
           inkscape:connector-curvature="0"
           id="path2843"
           d="m 61500,37500 v 500 h 500 l -500,500 -500,-500 h 500 z"
           style="fill:none;fill-opacity:0;stroke:#840000;stroke-width:60;stroke-linecap:round;stroke-linejoin:round;stroke-opacity:1" />
      </g>
      <g
         id="g2853"
         style="fill:#008484;fill-opacity:0;stroke:#008484;stroke-width:60;stroke-linecap:round;stroke-linejoin:round;stroke-opacity:1">
        <path
           inkscape:connector-curvature="0"
           id="path2847"
           d="m 61160,39000 -40,-30 h -70 l -80,30 -40,40 -30,50 -20,100 v 70 l 20,90 30,50 40,50 80,20 h 40 l 70,-20 30,-30 v -160 h -100" />
        <path
           inkscape:connector-curvature="0"
           id="path2849"
           d="m 61400,39470 v -500 l 290,500 v -500" />
        <path
           inkscape:connector-curvature="0"
           id="path2851"
           d="m 61930,39470 v -500 h 120 l 70,30 40,40 30,50 20,100 v 70 l -20,90 -30,50 -40,50 -70,20 h -120" />
      </g>
    </g>
    <g
       transform="translate(-38184.262,736.82003)"
       id="g2897"
       style="fill:#008484;fill-opacity:0;stroke:#008484;stroke-width:0;stroke-linecap:round;stroke-linejoin:round;stroke-opacity:1">
      <g
         id="g2857" />
      <g
         id="g2859"
         style="fill:#840000;fill-opacity:0;stroke:#840000;stroke-width:0;stroke-linecap:round;stroke-linejoin:round;stroke-opacity:1" />
      <g
         id="g2863"
         style="fill:#840000;fill-opacity:0;stroke:#840000;stroke-width:80;stroke-linecap:round;stroke-linejoin:round;stroke-opacity:1">
        <path
           inkscape:connector-curvature="0"
           id="path2861"
           d="M 62000,21500 H 61000 Z"
           style="fill:none;fill-opacity:0;stroke:#840000;stroke-width:80;stroke-linecap:round;stroke-linejoin:round;stroke-opacity:1" />
      </g>
      <g
         id="g2867"
         style="fill:#840000;fill-opacity:0;stroke:#840000;stroke-width:60;stroke-linecap:round;stroke-linejoin:round;stroke-opacity:1">
        <path
           inkscape:connector-curvature="0"
           id="path2865"
           d="M 61500,21500 V 20500 Z"
           style="fill:none;fill-opacity:0;stroke:#840000;stroke-width:60;stroke-linecap:round;stroke-linejoin:round;stroke-opacity:1" />
      </g>
      <g
         id="g2871"
         style="fill:#840000;fill-opacity:0;stroke:#840000;stroke-width:80;stroke-linecap:round;stroke-linejoin:round;stroke-opacity:1">
        <path
           inkscape:connector-curvature="0"
           id="path2869"
           d="m 62000,20500 h -1000 l 500,1000 z"
           style="fill:none;fill-opacity:0;stroke:#840000;stroke-width:80;stroke-linecap:round;stroke-linejoin:round;stroke-opacity:1" />
      </g>
      <g
         id="g2881"
         style="fill:#840000;fill-opacity:0;stroke:#840000;stroke-width:60;stroke-linecap:round;stroke-linejoin:round;stroke-opacity:1">
        <path
           inkscape:connector-curvature="0"
           id="path2873"
           d="m 61800,22200 600,600 v -300 300 h -300 z"
           style="fill:none;fill-opacity:0;stroke:#840000;stroke-width:60;stroke-linecap:round;stroke-linejoin:round;stroke-opacity:1" />
        <path
           inkscape:connector-curvature="0"
           id="path2875"
           d="m 61800,21700 600,600 v -300 300 h -300 z"
           style="fill:none;fill-opacity:0;stroke:#840000;stroke-width:60;stroke-linecap:round;stroke-linejoin:round;stroke-opacity:1" />
        <path
           inkscape:connector-curvature="0"
           id="path2877"
           d="m 61500,21500 v 1000" />
        <path
           inkscape:connector-curvature="0"
           id="path2879"
           d="M 61500,20500 V 19500" />
      </g>
      <g
         id="g2895"
         style="fill:#008484;fill-opacity:0;stroke:#008484;stroke-width:60;stroke-linecap:round;stroke-linejoin:round;stroke-opacity:1">
        <path
           inkscape:connector-curvature="0"
           id="path2883"
           d="m 62820,20800 v -500 h 120 l 70,30 40,40 30,50 20,100 v 70 l -20,90 -30,50 -40,50 -70,20 h -120" />
        <path
           inkscape:connector-curvature="0"
           id="path2885"
           d="m 63290,20350 30,-20 40,-30 h 120 l 50,30 20,20 30,50 v 40 l -30,80 -280,280 h 310" />
        <path
           inkscape:connector-curvature="0"
           id="path2887"
           d="m 63050,21710 h -230 v -500" />
        <path
           inkscape:connector-curvature="0"
           id="path2889"
           d="m 63220,21450 h 170" />
        <path
           inkscape:connector-curvature="0"
           id="path2891"
           d="m 63460,21710 h -240 v -500 h 240" />
        <path
           inkscape:connector-curvature="0"
           id="path2893"
           d="m 63670,21710 v -500 h 120 l 70,30 50,40 20,50 30,100 v 70 l -30,90 -20,50 -50,50 -70,20 h -120" />
      </g>
    </g>
    <g
       transform="translate(-38184.262,736.82003)"
       id="g2935"
       style="fill:#008484;fill-opacity:0;stroke:#008484;stroke-width:0;stroke-linecap:round;stroke-linejoin:round;stroke-opacity:1">
      <g
         id="g2899" />
      <g
         id="g2901"
         style="fill:#840000;fill-opacity:0;stroke:#840000;stroke-width:0;stroke-linecap:round;stroke-linejoin:round;stroke-opacity:1" />
      <g
         id="g2905"
         style="fill:#840000;fill-opacity:0;stroke:#840000;stroke-width:100;stroke-linecap:round;stroke-linejoin:round;stroke-opacity:1">
        <rect
           id="rect2903"
           rx="0"
           height="2000"
           width="800"
           y="14000"
           x="61100" />
      </g>
      <g
         id="g2911"
         style="fill:#840000;fill-opacity:0;stroke:#840000;stroke-width:60;stroke-linecap:round;stroke-linejoin:round;stroke-opacity:1">
        <path
           inkscape:connector-curvature="0"
           id="path2907"
           d="m 61500,16000 v 500" />
        <path
           inkscape:connector-curvature="0"
           id="path2909"
           d="m 61500,14000 v -500" />
      </g>
      <g
         id="g2933"
         style="fill:#008484;fill-opacity:0;stroke:#008484;stroke-width:60;stroke-linecap:round;stroke-linejoin:round;stroke-opacity:1">
        <path
           inkscape:connector-curvature="0"
           id="path2913"
           d="m 62630,15650 -160,-240" />
        <path
           inkscape:connector-curvature="0"
           id="path2915"
           d="m 62350,15650 v -500 h 190 l 40,30 30,20 20,50 v 70 l -20,50 -30,20 -40,20 h -190" />
        <path
           inkscape:connector-curvature="0"
           id="path2917"
           d="m 63110,15650 h -290" />
        <path
           inkscape:connector-curvature="0"
           id="path2919"
           d="m 62970,15650 v -500 l -50,70 -50,50 -50,20" />
        <path
           inkscape:connector-curvature="0"
           id="path2921"
           d="m 62290,14240 h 310 l -170,190 h 80 l 40,30 30,20 20,50 v 120 l -20,40 -30,30 -40,20 h -150 l -40,-20 -30,-30" />
        <path
           inkscape:connector-curvature="0"
           id="path2923"
           d="m 62820,14690 20,30 -20,20 -30,-20 30,-30 v 50" />
        <path
           inkscape:connector-curvature="0"
           id="path2925"
           d="m 63080,14740 h 90 l 50,-20 20,-30 50,-70 30,-90 v -190 l -30,-50 -20,-20 -50,-30 h -100 l -40,30 -30,20 -20,50 v 120 l 20,40 30,30 40,20 h 100 l 50,-20 20,-30 30,-40" />
        <path
           inkscape:connector-curvature="0"
           id="path2927"
           d="m 63530,14740 v -500" />
        <path
           inkscape:connector-curvature="0"
           id="path2929"
           d="m 63820,14740 -220,-280" />
        <path
           inkscape:connector-curvature="0"
           id="path2931"
           d="m 63820,14240 -290,290" />
      </g>
    </g>
    <g
       transform="translate(-38184.262,736.82003)"
       id="g2941"
       style="fill:#008400;fill-opacity:0;stroke:#008400;stroke-width:60;stroke-linecap:round;stroke-linejoin:round;stroke-opacity:1">
      <path
         inkscape:connector-curvature="0"
         id="path2937"
         d="m 61500,22500 v 2500" />
      <path
         inkscape:connector-curvature="0"
         id="path2939"
         d="m 61500,17500 v 2000" />
    </g>
    <g
       transform="translate(-38184.262,736.82003)"
       id="g2947"
       style="fill:#008400;fill-opacity:1;stroke:#008400;stroke-width:100;stroke-linecap:round;stroke-linejoin:round;stroke-opacity:1">
      <circle
         id="circle2945"
         r="200"
         cy="37500"
         cx="61500" />
    </g>
    <g
       transform="translate(-38184.262,736.82003)"
       id="g2953"
       style="fill:#008400;fill-opacity:0;stroke:#008400;stroke-width:60;stroke-linecap:round;stroke-linejoin:round;stroke-opacity:1">
      <path
         inkscape:connector-curvature="0"
         id="path2951"
         d="m 61500,37500 h 7500" />
    </g>
    <g
       transform="translate(-38184.262,736.82003)"
       id="g2993"
       style="fill:#008400;fill-opacity:0;stroke:#008400;stroke-width:0;stroke-linecap:round;stroke-linejoin:round;stroke-opacity:1">
      <g
         id="g2955" />
      <g
         id="g2957"
         style="fill:#840000;fill-opacity:0;stroke:#840000;stroke-width:0;stroke-linecap:round;stroke-linejoin:round;stroke-opacity:1" />
      <g
         id="g2963"
         style="fill:#840000;fill-opacity:1;stroke:#840000;stroke-width:60;stroke-linecap:round;stroke-linejoin:round;stroke-opacity:1">
        <rect
           id="rect2959"
           rx="0"
           height="100"
           width="1800"
           y="22800"
           x="53100" />
        <rect
           id="rect2961"
           rx="0"
           height="200"
           width="1200"
           y="23030"
           x="53380" />
      </g>
      <g
         id="g2969"
         style="fill:#840000;fill-opacity:0;stroke:#840000;stroke-width:60;stroke-linecap:round;stroke-linejoin:round;stroke-opacity:1">
        <path
           inkscape:connector-curvature="0"
           id="path2965"
           d="m 54000,23200 v 300 z"
           style="fill:none;fill-opacity:0;stroke:#840000;stroke-width:60;stroke-linecap:round;stroke-linejoin:round;stroke-opacity:1" />
        <path
           inkscape:connector-curvature="0"
           id="path2967"
           d="m 54000,22800 v -300 z"
           style="fill:none;fill-opacity:0;stroke:#840000;stroke-width:60;stroke-linecap:round;stroke-linejoin:round;stroke-opacity:1" />
      </g>
      <g
         id="g2975"
         style="fill:#840000;fill-opacity:0;stroke:#840000;stroke-width:100;stroke-linecap:round;stroke-linejoin:round;stroke-opacity:1">
        <path
           inkscape:connector-curvature="0"
           id="path2971"
           d="m 54200,22150 h 400 z"
           style="fill:none;fill-opacity:0;stroke:#840000;stroke-width:100;stroke-linecap:round;stroke-linejoin:round;stroke-opacity:1" />
        <path
           inkscape:connector-curvature="0"
           id="path2973"
           d="m 54400,21950 v 400 z"
           style="fill:none;fill-opacity:0;stroke:#840000;stroke-width:100;stroke-linecap:round;stroke-linejoin:round;stroke-opacity:1" />
      </g>
      <g
         id="g2981"
         style="fill:#840000;fill-opacity:0;stroke:#840000;stroke-width:60;stroke-linecap:round;stroke-linejoin:round;stroke-opacity:1">
        <path
           inkscape:connector-curvature="0"
           id="path2977"
           d="M 54000,22500 V 21500" />
        <path
           inkscape:connector-curvature="0"
           id="path2979"
           d="m 54000,23500 v 1000" />
      </g>
      <g
         id="g2991"
         style="fill:#008484;fill-opacity:0;stroke:#008484;stroke-width:60;stroke-linecap:round;stroke-linejoin:round;stroke-opacity:1">
        <path
           inkscape:connector-curvature="0"
           id="path2983"
           d="m 55540,22910 v 330" />
        <path
           inkscape:connector-curvature="0"
           id="path2985"
           d="m 55420,22720 -120,350 h 310" />
        <path
           inkscape:connector-curvature="0"
           id="path2987"
           d="m 55870,22960 -50,-30 -20,-20 -20,-50 v -20 l 20,-50 20,-20 50,-30 h 100 l 40,30 30,20 20,50 v 20 l -20,50 -30,20 -40,30 h -100 l -50,20 -20,20 -20,50 v 100 l 20,40 20,30 50,20 h 100 l 40,-20 30,-30 20,-40 v -100 l -20,-50 -30,-20 -40,-20" />
        <path
           inkscape:connector-curvature="0"
           id="path2989"
           d="m 56200,22740 170,500 170,-500" />
      </g>
    </g>
    <g
       transform="translate(-38184.262,736.82003)"
       id="g3037"
       style="fill:#008484;fill-opacity:0;stroke:#008484;stroke-width:0;stroke-linecap:round;stroke-linejoin:round;stroke-opacity:1">
      <g
         id="g2995" />
      <g
         id="g2997"
         style="fill:#840000;fill-opacity:0;stroke:#840000;stroke-width:0;stroke-linecap:round;stroke-linejoin:round;stroke-opacity:1" />
      <g
         id="g3003"
         style="fill:#840000;fill-opacity:1;stroke:#840000;stroke-width:60;stroke-linecap:round;stroke-linejoin:round;stroke-opacity:1">
        <rect
           id="rect2999"
           rx="0"
           height="100"
           width="1800"
           y="33800"
           x="68100" />
        <rect
           id="rect3001"
           rx="0"
           height="200"
           width="1200"
           y="34030"
           x="68380" />
      </g>
      <g
         id="g3009"
         style="fill:#840000;fill-opacity:0;stroke:#840000;stroke-width:60;stroke-linecap:round;stroke-linejoin:round;stroke-opacity:1">
        <path
           inkscape:connector-curvature="0"
           id="path3005"
           d="m 69000,34200 v 300 z"
           style="fill:none;fill-opacity:0;stroke:#840000;stroke-width:60;stroke-linecap:round;stroke-linejoin:round;stroke-opacity:1" />
        <path
           inkscape:connector-curvature="0"
           id="path3007"
           d="m 69000,33800 v -300 z"
           style="fill:none;fill-opacity:0;stroke:#840000;stroke-width:60;stroke-linecap:round;stroke-linejoin:round;stroke-opacity:1" />
      </g>
      <g
         id="g3015"
         style="fill:#840000;fill-opacity:0;stroke:#840000;stroke-width:100;stroke-linecap:round;stroke-linejoin:round;stroke-opacity:1">
        <path
           inkscape:connector-curvature="0"
           id="path3011"
           d="m 69200,33150 h 400 z"
           style="fill:none;fill-opacity:0;stroke:#840000;stroke-width:100;stroke-linecap:round;stroke-linejoin:round;stroke-opacity:1" />
        <path
           inkscape:connector-curvature="0"
           id="path3013"
           d="m 69400,32950 v 400 z"
           style="fill:none;fill-opacity:0;stroke:#840000;stroke-width:100;stroke-linecap:round;stroke-linejoin:round;stroke-opacity:1" />
      </g>
      <g
         id="g3021"
         style="fill:#840000;fill-opacity:0;stroke:#840000;stroke-width:60;stroke-linecap:round;stroke-linejoin:round;stroke-opacity:1">
        <path
           inkscape:connector-curvature="0"
           id="path3017"
           d="M 69000,33500 V 32500" />
        <path
           inkscape:connector-curvature="0"
           id="path3019"
           d="m 69000,34500 v 1000" />
      </g>
      <g
         id="g3035"
         style="fill:#008484;fill-opacity:0;stroke:#008484;stroke-width:60;stroke-linecap:round;stroke-linejoin:round;stroke-opacity:1">
        <path
           inkscape:connector-curvature="0"
           id="path3023"
           d="m 70590,34240 h -290" />
        <path
           inkscape:connector-curvature="0"
           id="path3025"
           d="m 70450,34240 v -500 l -50,70 -50,50 -50,20" />
        <path
           inkscape:connector-curvature="0"
           id="path3027"
           d="m 70800,34190 30,30 -30,20 -20,-20 20,-30 v 50" />
        <path
           inkscape:connector-curvature="0"
           id="path3029"
           d="m 71020,33790 20,-20 50,-30 h 120 l 50,30 20,20 20,50 v 40 l -20,80 -290,280 h 310" />
        <path
           inkscape:connector-curvature="0"
           id="path3031"
           d="m 71760,33740 h -240 l -30,240 30,-20 40,-30 h 120 l 50,30 30,20 20,50 v 120 l -20,40 -30,30 -50,20 h -120 l -40,-20 -30,-30" />
        <path
           inkscape:connector-curvature="0"
           id="path3033"
           d="m 71920,33740 170,500 170,-500" />
      </g>
    </g>
    <g
       transform="translate(-38184.262,736.82003)"
       id="g3051"
       style="fill:#008400;fill-opacity:0;stroke:#008400;stroke-width:60;stroke-linecap:round;stroke-linejoin:round;stroke-opacity:1">
      <path
         inkscape:connector-curvature="0"
         id="path3039"
         d="m 54000,12500 v 9000" />
      <path
         inkscape:connector-curvature="0"
         id="path3041"
         d="m 54000,12500 h 7500" />
      <path
         inkscape:connector-curvature="0"
         id="path3043"
         d="M 54000,24500 V 37500" />
      <path
         inkscape:connector-curvature="0"
         id="path3045"
         d="m 54000,37500 h 7500" />
      <path
         inkscape:connector-curvature="0"
         id="path3047"
         d="m 61500,12500 v 1000" />
      <path
         inkscape:connector-curvature="0"
         id="path3049"
         d="m 61500,16500 v 1000" />
    </g>
    <g
       transform="translate(-38184.262,736.82003)"
       id="g3057"
       style="fill:#008400;fill-opacity:1;stroke:#008400;stroke-width:100;stroke-linecap:round;stroke-linejoin:round;stroke-opacity:1">
      <circle
         id="circle3055"
         r="200"
         cy="17500"
         cx="61500" />
    </g>
    <g
       transform="translate(-38184.262,736.82003)"
       id="g3065"
       style="fill:#008400;fill-opacity:0;stroke:#008400;stroke-width:60;stroke-linecap:round;stroke-linejoin:round;stroke-opacity:1">
      <path
         inkscape:connector-curvature="0"
         id="path3061"
         d="m 69000,31000 v 500" />
      <path
         inkscape:connector-curvature="0"
         id="path3063"
         d="M 69000,37500 V 35500" />
    </g>
    <g
       transform="translate(-38184.262,736.82003)"
       id="g3157"
       style="fill:#008400;fill-opacity:0;stroke:#008400;stroke-width:0;stroke-linecap:round;stroke-linejoin:round;stroke-opacity:1">
      <g
         id="g3067" />
      <g
         id="g3069"
         style="fill:#840000;fill-opacity:0;stroke:#840000;stroke-width:0;stroke-linecap:round;stroke-linejoin:round;stroke-opacity:1" />
      <g
         id="g3077"
         style="fill:#840000;fill-opacity:0;stroke:#840000;stroke-width:60;stroke-linecap:round;stroke-linejoin:round;stroke-opacity:1">
        <circle
           id="circle3071"
           r="2000"
           cy="30000"
           cx="81000" />
        <circle
           id="circle3073"
           r="2020"
           cy="32000"
           cx="81000" />
        <path
           inkscape:connector-curvature="0"
           id="path3075"
           d="m 83700,31100 v -500" />
      </g>
      <g
         id="g3083"
         style="fill:#840000;fill-opacity:1;stroke:#840000;stroke-width:60;stroke-linecap:round;stroke-linejoin:round;stroke-opacity:1">
        <path
           inkscape:connector-curvature="0"
           id="path3079"
           d="m 84000,29000 v 4000 z"
           style="fill:#840000;fill-opacity:1;fill-rule:evenodd;stroke:#840000;stroke-width:60;stroke-linecap:round;stroke-linejoin:round;stroke-opacity:1" />
        <path
           inkscape:connector-curvature="0"
           id="path3081"
           d="m 84500,33000 -500,1000 -500,-1000 z"
           style="fill:#840000;fill-opacity:1;fill-rule:evenodd;stroke:#840000;stroke-width:60;stroke-linecap:round;stroke-linejoin:round;stroke-opacity:1" />
      </g>
      <g
         id="g3087"
         style="fill:#840000;fill-opacity:0;stroke:#840000;stroke-width:60;stroke-linecap:round;stroke-linejoin:round;stroke-opacity:1">
        <path
           inkscape:connector-curvature="0"
           id="path3085"
           d="m 81000,34000 v 1000" />
      </g>
      <g
         id="g3097"
         style="fill:#008484;fill-opacity:0;stroke:#008484;stroke-width:60;stroke-linecap:round;stroke-linejoin:round;stroke-opacity:1">
        <path
           inkscape:connector-curvature="0"
           id="path3089"
           d="m 80960,33450 v -170" />
        <path
           inkscape:connector-curvature="0"
           id="path3091"
           d="m 81220,33210 v 240 h -500 v -240" />
        <path
           inkscape:connector-curvature="0"
           id="path3093"
           d="m 81220,32730 v 290" />
        <path
           inkscape:connector-curvature="0"
           id="path3095"
           d="m 81220,32870 h -500 l 70,50 50,50 20,50" />
      </g>
      <g
         id="g3105"
         style="fill:#840000;fill-opacity:0;stroke:#840000;stroke-width:60;stroke-linecap:round;stroke-linejoin:round;stroke-opacity:1">
        <path
           inkscape:connector-curvature="0"
           id="path3099"
           d="m 80870,34350 v 290" />
        <path
           inkscape:connector-curvature="0"
           id="path3101"
           d="m 80870,34500 h -500 l 70,40 50,50 20,50" />
        <path
           inkscape:connector-curvature="0"
           id="path3103"
           d="M 81000,28000 V 27000" />
      </g>
      <g
         id="g3113"
         style="fill:#008484;fill-opacity:0;stroke:#008484;stroke-width:60;stroke-linecap:round;stroke-linejoin:round;stroke-opacity:1">
        <path
           inkscape:connector-curvature="0"
           id="path3107"
           d="m 80960,29230 v -160" />
        <path
           inkscape:connector-curvature="0"
           id="path3109"
           d="m 81220,29000 v 230 h -500 v -230" />
        <path
           inkscape:connector-curvature="0"
           id="path3111"
           d="m 80770,28810 -20,-30 -30,-50 v -110 l 30,-50 20,-30 50,-20 h 40 l 80,20 280,290 v -310" />
      </g>
      <g
         id="g3117"
         style="fill:#840000;fill-opacity:0;stroke:#840000;stroke-width:60;stroke-linecap:round;stroke-linejoin:round;stroke-opacity:1">
        <path
           inkscape:connector-curvature="0"
           id="path3115"
           d="m 80420,27640 -20,-30 -30,-40 v -120 l 30,-50 20,-20 50,-30 h 40 l 80,30 280,280 v -310" />
      </g>
      <g
         id="g3155"
         style="fill:#008484;fill-opacity:0;stroke:#008484;stroke-width:60;stroke-linecap:round;stroke-linejoin:round;stroke-opacity:1">
        <path
           inkscape:connector-curvature="0"
           id="path3119"
           d="m 85160,31190 h -230 v -500" />
        <path
           inkscape:connector-curvature="0"
           id="path3121"
           d="m 85330,31190 v -500 l 170,360 160,-360 v 500" />
        <path
           inkscape:connector-curvature="0"
           id="path3123"
           d="m 85850,30690 h 310 l -160,190 h 70 l 50,30 20,20 20,50 v 120 l -20,40 -20,30 -50,20 h -140 l -50,-20 -30,-30" />
        <path
           inkscape:connector-curvature="0"
           id="path3125"
           d="m 86400,31190 h 100 l 50,-20 20,-30 50,-70 20,-90 v -190 l -20,-50 -30,-20 -40,-30 h -100 l -50,30 -20,20 -30,50 v 120 l 30,40 20,30 50,20 h 100 l 40,-20 30,-30 20,-40" />
        <path
           inkscape:connector-curvature="0"
           id="path3127"
           d="m 87120,31190 h -290" />
        <path
           inkscape:connector-curvature="0"
           id="path3129"
           d="m 86970,31190 v -500 l -40,70 -50,50 -50,20" />
        <path
           inkscape:connector-curvature="0"
           id="path3131"
           d="m 87550,30860 v 330" />
        <path
           inkscape:connector-curvature="0"
           id="path3133"
           d="m 87430,30670 -120,350 h 310" />
        <path
           inkscape:connector-curvature="0"
           id="path3135"
           d="m 87740,30690 160,500 170,-500" />
        <path
           inkscape:connector-curvature="0"
           id="path3137"
           d="m 88620,31000 h 380" />
        <path
           inkscape:connector-curvature="0"
           id="path3139"
           d="m 89850,30690 h -230 l -30,240 30,-20 40,-30 h 120 l 50,30 20,20 30,50 v 120 l -30,40 -20,30 -50,20 h -120 l -40,-20 -30,-30" />
        <path
           inkscape:connector-curvature="0"
           id="path3141"
           d="m 90090,31140 30,30 -30,20 -20,-20 20,-30 v 50" />
        <path
           inkscape:connector-curvature="0"
           id="path3143"
           d="m 90550,30690 h -100 l -50,30 -20,20 -50,70 -20,100 v 190 l 20,40 20,30 50,20 h 100 l 50,-20 20,-30 20,-40 v -120 l -20,-50 -20,-20 -50,-30 h -100 l -50,30 -20,20 -20,50" />
        <path
           inkscape:connector-curvature="0"
           id="path3145"
           d="m 90810,31190 v -330" />
        <path
           inkscape:connector-curvature="0"
           id="path3147"
           d="m 90810,30910 20,-30 50,-20 h 70 l 50,20 20,50 v 260" />
        <path
           inkscape:connector-curvature="0"
           id="path3149"
           d="m 91020,30930 30,-50 40,-20 h 70 l 50,20 30,50 v 260" />
        <path
           inkscape:connector-curvature="0"
           id="path3151"
           d="m 91450,31050 h 240" />
        <path
           inkscape:connector-curvature="0"
           id="path3153"
           d="m 91400,31190 170,-500 170,500" />
      </g>
    </g>
    <g
       transform="translate(-38184.262,736.82003)"
       id="g3223"
       style="fill:#008484;fill-opacity:0;stroke:#008484;stroke-width:0;stroke-linecap:round;stroke-linejoin:round;stroke-opacity:1">
      <g
         id="g3159" />
      <g
         id="g3161"
         style="fill:#840000;fill-opacity:0;stroke:#840000;stroke-width:0;stroke-linecap:round;stroke-linejoin:round;stroke-opacity:1" />
      <g
         id="g3169"
         style="fill:#840000;fill-opacity:0;stroke:#840000;stroke-width:60;stroke-linecap:round;stroke-linejoin:round;stroke-opacity:1">
        <circle
           id="circle3163"
           r="2000"
           cy="29000"
           cx="61500" />
        <circle
           id="circle3165"
           r="2020"
           cy="31000"
           cx="61500" />
        <path
           inkscape:connector-curvature="0"
           id="path3167"
           d="m 64200,30100 v -500" />
      </g>
      <g
         id="g3175"
         style="fill:#840000;fill-opacity:1;stroke:#840000;stroke-width:60;stroke-linecap:round;stroke-linejoin:round;stroke-opacity:1">
        <path
           inkscape:connector-curvature="0"
           id="path3171"
           d="m 64500,28000 v 4000 z"
           style="fill:#840000;fill-opacity:1;fill-rule:evenodd;stroke:#840000;stroke-width:60;stroke-linecap:round;stroke-linejoin:round;stroke-opacity:1" />
        <path
           inkscape:connector-curvature="0"
           id="path3173"
           d="m 65000,32000 -500,1000 -500,-1000 z"
           style="fill:#840000;fill-opacity:1;fill-rule:evenodd;stroke:#840000;stroke-width:60;stroke-linecap:round;stroke-linejoin:round;stroke-opacity:1" />
      </g>
      <g
         id="g3179"
         style="fill:#840000;fill-opacity:0;stroke:#840000;stroke-width:60;stroke-linecap:round;stroke-linejoin:round;stroke-opacity:1">
        <path
           inkscape:connector-curvature="0"
           id="path3177"
           d="m 61500,33000 v 1000" />
      </g>
      <g
         id="g3189"
         style="fill:#008484;fill-opacity:0;stroke:#008484;stroke-width:60;stroke-linecap:round;stroke-linejoin:round;stroke-opacity:1">
        <path
           inkscape:connector-curvature="0"
           id="path3181"
           d="m 61460,32450 v -170" />
        <path
           inkscape:connector-curvature="0"
           id="path3183"
           d="m 61720,32210 v 240 h -500 v -240" />
        <path
           inkscape:connector-curvature="0"
           id="path3185"
           d="m 61720,31730 v 290" />
        <path
           inkscape:connector-curvature="0"
           id="path3187"
           d="m 61720,31870 h -500 l 70,50 50,50 20,50" />
      </g>
      <g
         id="g3197"
         style="fill:#840000;fill-opacity:0;stroke:#840000;stroke-width:60;stroke-linecap:round;stroke-linejoin:round;stroke-opacity:1">
        <path
           inkscape:connector-curvature="0"
           id="path3191"
           d="m 61370,33350 v 290" />
        <path
           inkscape:connector-curvature="0"
           id="path3193"
           d="m 61370,33500 h -500 l 70,40 50,50 20,50" />
        <path
           inkscape:connector-curvature="0"
           id="path3195"
           d="M 61500,27000 V 26000" />
      </g>
      <g
         id="g3205"
         style="fill:#008484;fill-opacity:0;stroke:#008484;stroke-width:60;stroke-linecap:round;stroke-linejoin:round;stroke-opacity:1">
        <path
           inkscape:connector-curvature="0"
           id="path3199"
           d="m 61460,28230 v -160" />
        <path
           inkscape:connector-curvature="0"
           id="path3201"
           d="m 61720,28000 v 230 h -500 v -230" />
        <path
           inkscape:connector-curvature="0"
           id="path3203"
           d="m 61270,27810 -20,-30 -30,-50 v -110 l 30,-50 20,-30 50,-20 h 40 l 80,20 280,290 v -310" />
      </g>
      <g
         id="g3209"
         style="fill:#840000;fill-opacity:0;stroke:#840000;stroke-width:60;stroke-linecap:round;stroke-linejoin:round;stroke-opacity:1">
        <path
           inkscape:connector-curvature="0"
           id="path3207"
           d="m 60920,26640 -20,-30 -30,-40 v -120 l 30,-50 20,-20 50,-30 h 40 l 80,30 280,280 v -310" />
      </g>
      <g
         id="g3221"
         style="fill:#008484;fill-opacity:0;stroke:#008484;stroke-width:60;stroke-linecap:round;stroke-linejoin:round;stroke-opacity:1">
        <path
           inkscape:connector-curvature="0"
           id="path3211"
           d="m 65570,29910 40,20 30,20 20,50 v 100 l -20,40 -30,30 -40,20 h -80 l -40,-20 -30,-30" />
        <path
           inkscape:connector-curvature="0"
           id="path3213"
           d="m 65380,30360 20,-30 20,-40 v -530 l 30,-40 40,-30 h 80 l 40,30 30,40 v 70 l -30,50 -40,30 h -50" />
        <path
           inkscape:connector-curvature="0"
           id="path3215"
           d="m 65880,30190 v -500" />
        <path
           inkscape:connector-curvature="0"
           id="path3217"
           d="m 66110,30190 v -500" />
        <path
           inkscape:connector-curvature="0"
           id="path3219"
           d="m 66110,29880 50,-20 h 100 l 40,20 30,30 20,40 v 150 l -20,40 -30,30 -40,20 h -100 l -50,-20" />
      </g>
    </g>
    <g
       transform="translate(-38184.262,736.82003)"
       id="g3227"
       style="fill:#008400;fill-opacity:0;stroke:#008400;stroke-width:60;stroke-linecap:round;stroke-linejoin:round;stroke-opacity:1">
      <path
         inkscape:connector-curvature="0"
         id="path3225"
         d="m 61500,34000 v 3500" />
    </g>
    <g
       transform="translate(-38184.262,736.82003)"
       id="g3261"
       style="fill:#008400;fill-opacity:0;stroke:#008400;stroke-width:0;stroke-linecap:round;stroke-linejoin:round;stroke-opacity:1">
      <g
         id="g3229" />
      <g
         id="g3231"
         style="fill:#840000;fill-opacity:0;stroke:#840000;stroke-width:0;stroke-linecap:round;stroke-linejoin:round;stroke-opacity:1" />
      <g
         id="g3235"
         style="fill:#840000;fill-opacity:0;stroke:#840000;stroke-width:80;stroke-linecap:round;stroke-linejoin:round;stroke-opacity:1">
        <path
           inkscape:connector-curvature="0"
           id="path3233"
           d="m 68500,30000 h 1000 z"
           style="fill:none;fill-opacity:0;stroke:#840000;stroke-width:80;stroke-linecap:round;stroke-linejoin:round;stroke-opacity:1" />
      </g>
      <g
         id="g3239"
         style="fill:#840000;fill-opacity:0;stroke:#840000;stroke-width:60;stroke-linecap:round;stroke-linejoin:round;stroke-opacity:1">
        <path
           inkscape:connector-curvature="0"
           id="path3237"
           d="m 69000,29000 v 1000 z"
           style="fill:none;fill-opacity:0;stroke:#840000;stroke-width:60;stroke-linecap:round;stroke-linejoin:round;stroke-opacity:1" />
      </g>
      <g
         id="g3243"
         style="fill:#840000;fill-opacity:0;stroke:#840000;stroke-width:80;stroke-linecap:round;stroke-linejoin:round;stroke-opacity:1">
        <path
           inkscape:connector-curvature="0"
           id="path3241"
           d="m 68500,29000 h 1000 l -500,1000 z"
           style="fill:none;fill-opacity:0;stroke:#840000;stroke-width:80;stroke-linecap:round;stroke-linejoin:round;stroke-opacity:1" />
      </g>
      <g
         id="g3249"
         style="fill:#840000;fill-opacity:0;stroke:#840000;stroke-width:60;stroke-linecap:round;stroke-linejoin:round;stroke-opacity:1">
        <path
           inkscape:connector-curvature="0"
           id="path3245"
           d="m 69000,30000 v 1000" />
        <path
           inkscape:connector-curvature="0"
           id="path3247"
           d="M 69000,29000 V 28000" />
      </g>
      <g
         id="g3259"
         style="fill:#008484;fill-opacity:0;stroke:#008484;stroke-width:60;stroke-linecap:round;stroke-linejoin:round;stroke-opacity:1">
        <path
           inkscape:connector-curvature="0"
           id="path3251"
           d="m 69930,29690 v -500 h 120 l 70,30 50,40 30,50 20,100 v 70 l -20,90 -30,50 -50,50 -70,20 h -120" />
        <path
           inkscape:connector-curvature="0"
           id="path3253"
           d="m 70620,29670 -40,20 h -100 l -50,-20 -20,-50 v -190 l 20,-50 50,-20 h 100 l 40,20 30,50 v 50 l -240,40" />
        <path
           inkscape:connector-curvature="0"
           id="path3255"
           d="m 70860,29690 v -500" />
        <path
           inkscape:connector-curvature="0"
           id="path3257"
           d="m 70860,29380 50,-20 h 100 l 40,20 30,30 20,40 v 150 l -20,40 -30,30 -40,20 h -100 l -50,-20" />
      </g>
    </g>
    <g
       transform="translate(-38184.262,736.82003)"
       id="g3267"
       style="fill:#008400;fill-opacity:0;stroke:#008400;stroke-width:60;stroke-linecap:round;stroke-linejoin:round;stroke-opacity:1">
      <path
         inkscape:connector-curvature="0"
         id="path3263"
         d="m 61500,25000 h 7500" />
      <path
         inkscape:connector-curvature="0"
         id="path3265"
         d="m 69000,25000 v 3000" />
    </g>
    <g
       transform="translate(-38184.262,736.82003)"
       id="g3273"
       style="fill:#008400;fill-opacity:1;stroke:#008400;stroke-width:100;stroke-linecap:round;stroke-linejoin:round;stroke-opacity:1">
      <circle
         id="circle3271"
         r="200"
         cy="25000"
         cx="61500" />
    </g>
    <g
       transform="translate(-38184.262,736.82003)"
       id="g3279"
       style="fill:#008400;fill-opacity:0;stroke:#008400;stroke-width:60;stroke-linecap:round;stroke-linejoin:round;stroke-opacity:1">
      <path
         inkscape:connector-curvature="0"
         id="path3277"
         d="m 61500,25000 v 1000" />
    </g>
    <g
       transform="translate(-38184.262,736.82003)"
       id="g3295"
       style="fill:#0000c2;fill-opacity:0;stroke:#0000c2;stroke-width:60;stroke-linecap:round;stroke-linejoin:round;stroke-opacity:1">
      <path
         inkscape:connector-curvature="0"
         id="path3281"
         d="m 62070,16370 170,500 170,-500" />
      <path
         inkscape:connector-curvature="0"
         id="path3283"
         d="m 62570,16680 h 380" />
      <path
         inkscape:connector-curvature="0"
         id="path3285"
         d="m 62760,16870 v -380" />
      <path
         inkscape:connector-curvature="0"
         id="path3287"
         d="m 62140,24110 h 170" />
      <path
         inkscape:connector-curvature="0"
         id="path3289"
         d="m 62380,24370 h -240 v -500 h 240" />
      <path
         inkscape:connector-curvature="0"
         id="path3291"
         d="m 68310,31610 70,20 30,30 20,40 v 80 l -20,40 -30,30 -50,20 h -190 v -500 h 170 l 50,30 20,20 30,50 v 40 l -30,50 -20,30 -50,20 h -170" />
      <path
         inkscape:connector-curvature="0"
         id="path3293"
         d="m 62430,34820 -20,30 -80,20 h -40 l -70,-20 -50,-50 -30,-50 -20,-90 v -70 l 20,-100 30,-50 50,-40 70,-30 h 40 l 80,30 20,20" />
    </g>
    <g
       transform="translate(-38184.262,736.82003)"
       id="g3303"
       style="fill:#008400;fill-opacity:0;stroke:#008400;stroke-width:60;stroke-linecap:round;stroke-linejoin:round;stroke-opacity:1">
      <path
         inkscape:connector-curvature="0"
         id="path3297"
         d="m 81000,17500 v 9500" />
      <path
         inkscape:connector-curvature="0"
         id="path3299"
         d="M 61500,17500 H 81000" />
      <path
         inkscape:connector-curvature="0"
         id="path3301"
         d="m 81000,35000 v 2500" />
    </g>
    <g
       transform="translate(-38184.262,736.82003)"
       id="g3309"
       style="fill:#008400;fill-opacity:1;stroke:#008400;stroke-width:100;stroke-linecap:round;stroke-linejoin:round;stroke-opacity:1">
      <circle
         id="circle3307"
         r="200"
         cy="37500"
         cx="69000" />
    </g>
    <g
       transform="translate(-38184.262,736.82003)"
       id="g3323"
       style="fill:#008400;fill-opacity:1;stroke:#008400;stroke-width:0;stroke-linecap:round;stroke-linejoin:round;stroke-opacity:1">
      <g
         id="g3311" />
      <g
         id="g3313"
         style="fill:#840000;fill-opacity:1;stroke:#840000;stroke-width:0;stroke-linecap:round;stroke-linejoin:round;stroke-opacity:1" />
      <g
         id="g3317"
         style="fill:#840000;fill-opacity:0;stroke:#840000;stroke-width:100;stroke-linecap:round;stroke-linejoin:round;stroke-opacity:1">
        <path
           inkscape:connector-curvature="0"
           id="path3315"
           d="M 71500,30100 V 28500 Z"
           style="fill:none;fill-opacity:0;stroke:#840000;stroke-width:100;stroke-linecap:round;stroke-linejoin:round;stroke-opacity:1" />
      </g>
      <g
         id="g3321"
         style="fill:#840000;fill-opacity:1;stroke:#840000;stroke-width:60;stroke-linecap:round;stroke-linejoin:round;stroke-opacity:1">
        <path
           inkscape:connector-curvature="0"
           id="path3319"
           d="m 71500,30500 -200,-700 h 400 z"
           style="fill:#840000;fill-opacity:1;fill-rule:evenodd;stroke:#840000;stroke-width:60;stroke-linecap:round;stroke-linejoin:round;stroke-opacity:1" />
      </g>
    </g>
    <g
       transform="translate(-38184.262,736.82003)"
       id="g3331"
       style="fill:#0000c2;fill-opacity:0;stroke:#0000c2;stroke-width:60;stroke-linecap:round;stroke-linejoin:round;stroke-opacity:1">
      <path
         inkscape:connector-curvature="0"
         id="path3325"
         d="m 72140,29370 v -500" />
      <path
         inkscape:connector-curvature="0"
         id="path3327"
         d="m 72380,29370 v -500" />
      <path
         inkscape:connector-curvature="0"
         id="path3329"
         d="m 72380,29060 50,-20 h 100 l 40,20 30,30 20,40 v 150 l -20,40 -30,30 -40,20 h -100 l -50,-20" />
    </g>
    <g
       transform="translate(-38184.262,736.82003)"
       id="g3361"
       style="fill:#0000c2;fill-opacity:0;stroke:#0000c2;stroke-width:0;stroke-linecap:round;stroke-linejoin:round;stroke-opacity:1">
      <g
         id="g3333" />
      <g
         id="g3335"
         style="fill:#840000;fill-opacity:0;stroke:#840000;stroke-width:0;stroke-linecap:round;stroke-linejoin:round;stroke-opacity:1" />
      <g
         id="g3339"
         style="fill:#840000;fill-opacity:0;stroke:#840000;stroke-width:100;stroke-linecap:round;stroke-linejoin:round;stroke-opacity:1">
        <rect
           id="rect3337"
           rx="0"
           height="2000"
           width="800"
           y="33000"
           x="75100" />
      </g>
      <g
         id="g3345"
         style="fill:#840000;fill-opacity:0;stroke:#840000;stroke-width:60;stroke-linecap:round;stroke-linejoin:round;stroke-opacity:1">
        <path
           inkscape:connector-curvature="0"
           id="path3341"
           d="m 75500,35000 v 500" />
        <path
           inkscape:connector-curvature="0"
           id="path3343"
           d="m 75500,33000 v -500" />
      </g>
      <g
         id="g3359"
         style="fill:#008484;fill-opacity:0;stroke:#008484;stroke-width:60;stroke-linecap:round;stroke-linejoin:round;stroke-opacity:1">
        <path
           inkscape:connector-curvature="0"
           id="path3347"
           d="m 74200,33730 -160,-240" />
        <path
           inkscape:connector-curvature="0"
           id="path3349"
           d="m 73920,33730 v -500 h 190 l 40,30 30,20 20,50 v 70 l -20,50 -30,20 -40,20 h -190" />
        <path
           inkscape:connector-curvature="0"
           id="path3351"
           d="m 74370,33230 h 310 l -170,190 h 70 l 50,30 20,20 30,50 v 120 l -30,40 -20,30 -50,20 h -140 l -50,-20 -20,-30" />
        <path
           inkscape:connector-curvature="0"
           id="path3353"
           d="m 73670,34140 h -90 l -50,30 -20,20 -50,70 -20,100 v 190 l 20,40 20,30 50,20 h 100 l 40,-20 30,-30 20,-40 v -120 l -20,-50 -30,-20 -40,-30 h -100 l -50,30 -20,20 -20,50" />
        <path
           inkscape:connector-curvature="0"
           id="path3355"
           d="m 73910,34190 30,-20 40,-30 h 120 l 50,30 20,20 30,50 v 40 l -30,80 -280,280 h 310" />
        <path
           inkscape:connector-curvature="0"
           id="path3357"
           d="m 74510,34140 h 50 l 40,30 30,20 20,50 20,90 v 120 l -20,100 -20,40 -30,30 -40,20 h -50 l -50,-20 -20,-30 -30,-40 -20,-100 v -120 l 20,-90 30,-50 20,-20 50,-30" />
      </g>
    </g>
    <g
       transform="translate(-38184.262,736.82003)"
       id="g3369"
       style="fill:#008400;fill-opacity:0;stroke:#008400;stroke-width:60;stroke-linecap:round;stroke-linejoin:round;stroke-opacity:1">
      <path
         inkscape:connector-curvature="0"
         id="path3363"
         d="m 69000,37500 h 6500" />
      <path
         inkscape:connector-curvature="0"
         id="path3365"
         d="m 69000,31500 h 6500" />
      <path
         inkscape:connector-curvature="0"
         id="path3367"
         d="m 75500,31500 v 1000" />
    </g>
    <g
       transform="translate(-38184.262,736.82003)"
       id="g3375"
       style="fill:#008400;fill-opacity:1;stroke:#008400;stroke-width:100;stroke-linecap:round;stroke-linejoin:round;stroke-opacity:1">
      <circle
         id="circle3373"
         r="200"
         cy="31500"
         cx="69000" />
    </g>
    <g
       transform="translate(-38184.262,736.82003)"
       id="g3383"
       style="fill:#008400;fill-opacity:0;stroke:#008400;stroke-width:60;stroke-linecap:round;stroke-linejoin:round;stroke-opacity:1">
      <path
         inkscape:connector-curvature="0"
         id="path3379"
         d="m 69000,31500 v 1000" />
      <path
         inkscape:connector-curvature="0"
         id="path3381"
         d="m 75500,35500 v 2000" />
    </g>
    <g
       transform="translate(-38184.262,736.82003)"
       id="g3389"
       style="fill:#008400;fill-opacity:1;stroke:#008400;stroke-width:100;stroke-linecap:round;stroke-linejoin:round;stroke-opacity:1">
      <circle
         id="circle3387"
         r="200"
         cy="37500"
         cx="75500" />
    </g>
    <g
       transform="translate(-38184.262,736.82003)"
       id="g3395"
       style="fill:#008400;fill-opacity:0;stroke:#008400;stroke-width:60;stroke-linecap:round;stroke-linejoin:round;stroke-opacity:1">
      <path
         inkscape:connector-curvature="0"
         id="path3393"
         d="m 75500,37500 h 5500" />
    </g>
  </g>
</svg>
