<?xml version="1.0" encoding="UTF-8" standalone="no"?>
<svg
   xmlns:dc="http://purl.org/dc/elements/1.1/"
   xmlns:cc="http://creativecommons.org/ns#"
   xmlns:rdf="http://www.w3.org/1999/02/22-rdf-syntax-ns#"
   xmlns:svg="http://www.w3.org/2000/svg"
   xmlns="http://www.w3.org/2000/svg"
   xmlns:sodipodi="http://sodipodi.sourceforge.net/DTD/sodipodi-0.dtd"
   xmlns:inkscape="http://www.inkscape.org/namespaces/inkscape"
   version="1.1"
   width="640"
   height="380"
   viewBox="0 0 66666.713 39583.372"
   id="svg4077"
   sodipodi:docname="d1-off-circuit.svg"
   inkscape:version="0.92.4 (5da689c313, 2019-01-14)">
  <metadata
     id="metadata4083">
    <rdf:RDF>
      <cc:Work
         rdf:about="">
        <dc:format>image/svg+xml</dc:format>
        <dc:type
           rdf:resource="http://purl.org/dc/dcmitype/StillImage" />
        <dc:title>SVG Picture created as lm3914-high-voltage.svg date 2019/05/30 20:39:55 </dc:title>
      </cc:Work>
    </rdf:RDF>
  </metadata>
  <defs
     id="defs4081" />
  <sodipodi:namedview
     pagecolor="#ffffff"
     bordercolor="#666666"
     borderopacity="1"
     objecttolerance="10"
     gridtolerance="10"
     guidetolerance="10"
     inkscape:pageopacity="0"
     inkscape:pageshadow="2"
     inkscape:window-width="1920"
     inkscape:window-height="1043"
     id="namedview4079"
     showgrid="false"
     units="px"
     inkscape:zoom="0.70109659"
     inkscape:cx="570.5348"
     inkscape:cy="396.86362"
     inkscape:window-x="0"
     inkscape:window-y="0"
     inkscape:window-maximized="1"
     inkscape:current-layer="svg4077" />
  <title
     id="title815">SVG Picture created as lm3914-high-voltage.svg date 2019/05/30 20:39:55 </title>
  <desc
     id="desc817">Picture generated by Eeschema-SVG </desc>
  <g
     id="g4353"
     transform="matrix(1.3,0,0,1.3,-60656.73,-13988.817)">
    <g
       id="g2851"
       style="fill:#008400;fill-opacity:0;stroke:#008400;stroke-width:0;stroke-linecap:round;stroke-linejoin:round;stroke-opacity:1">
      <g
         id="g2835" />
      <g
         id="g2837"
         style="fill:#840000;fill-opacity:0;stroke:#840000;stroke-width:0;stroke-linecap:round;stroke-linejoin:round;stroke-opacity:1" />
      <g
         id="g2841"
         style="fill:#840000;fill-opacity:0;stroke:#840000;stroke-width:60;stroke-linecap:round;stroke-linejoin:round;stroke-opacity:1">
        <path
           id="path2839"
           d="m 61500,37500 v 500 h 500 l -500,500 -500,-500 h 500 z"
           style="fill:none;fill-opacity:0;stroke:#840000;stroke-width:60;stroke-linecap:round;stroke-linejoin:round;stroke-opacity:1"
           inkscape:connector-curvature="0" />
      </g>
      <g
         id="g2849"
         style="fill:#008484;fill-opacity:0;stroke:#008484;stroke-width:60;stroke-linecap:round;stroke-linejoin:round;stroke-opacity:1">
        <path
           id="path2843"
           d="m 61160,39000 -40,-30 h -70 l -80,30 -40,40 -30,50 -20,100 v 70 l 20,90 30,50 40,50 80,20 h 40 l 70,-20 30,-30 v -160 h -100"
           inkscape:connector-curvature="0" />
        <path
           id="path2845"
           d="m 61400,39470 v -500 l 290,500 v -500"
           inkscape:connector-curvature="0" />
        <path
           id="path2847"
           d="m 61930,39470 v -500 h 120 l 70,30 40,40 30,50 20,100 v 70 l -20,90 -30,50 -40,50 -70,20 h -120"
           inkscape:connector-curvature="0" />
      </g>
    </g>
    <g
       id="g2893"
       style="fill:#008484;fill-opacity:0;stroke:#008484;stroke-width:0;stroke-linecap:round;stroke-linejoin:round;stroke-opacity:1">
      <g
         id="g2853" />
      <g
         id="g2855"
         style="fill:#840000;fill-opacity:0;stroke:#840000;stroke-width:0;stroke-linecap:round;stroke-linejoin:round;stroke-opacity:1" />
      <g
         id="g2859"
         style="fill:#840000;fill-opacity:0;stroke:#840000;stroke-width:80;stroke-linecap:round;stroke-linejoin:round;stroke-opacity:1">
        <path
           id="path2857"
           d="M 62000,21500 H 61000 Z"
           style="fill:none;fill-opacity:0;stroke:#840000;stroke-width:80;stroke-linecap:round;stroke-linejoin:round;stroke-opacity:1"
           inkscape:connector-curvature="0" />
      </g>
      <g
         id="g2863"
         style="fill:#840000;fill-opacity:0;stroke:#840000;stroke-width:60;stroke-linecap:round;stroke-linejoin:round;stroke-opacity:1">
        <path
           id="path2861"
           d="M 61500,21500 V 20500 Z"
           style="fill:none;fill-opacity:0;stroke:#840000;stroke-width:60;stroke-linecap:round;stroke-linejoin:round;stroke-opacity:1"
           inkscape:connector-curvature="0" />
      </g>
      <g
         id="g2867"
         style="fill:#840000;fill-opacity:0;stroke:#840000;stroke-width:80;stroke-linecap:round;stroke-linejoin:round;stroke-opacity:1">
        <path
           id="path2865"
           d="m 62000,20500 h -1000 l 500,1000 z"
           style="fill:none;fill-opacity:0;stroke:#840000;stroke-width:80;stroke-linecap:round;stroke-linejoin:round;stroke-opacity:1"
           inkscape:connector-curvature="0" />
      </g>
      <g
         id="g2877"
         style="fill:#840000;fill-opacity:0;stroke:#840000;stroke-width:60;stroke-linecap:round;stroke-linejoin:round;stroke-opacity:1">
        <path
           id="path2869"
           d="m 61800,22200 600,600 v -300 300 h -300 z"
           style="fill:none;fill-opacity:0;stroke:#840000;stroke-width:60;stroke-linecap:round;stroke-linejoin:round;stroke-opacity:1"
           inkscape:connector-curvature="0" />
        <path
           id="path2871"
           d="m 61800,21700 600,600 v -300 300 h -300 z"
           style="fill:none;fill-opacity:0;stroke:#840000;stroke-width:60;stroke-linecap:round;stroke-linejoin:round;stroke-opacity:1"
           inkscape:connector-curvature="0" />
        <path
           id="path2873"
           d="m 61500,21500 v 1000"
           inkscape:connector-curvature="0" />
        <path
           id="path2875"
           d="M 61500,20500 V 19500"
           inkscape:connector-curvature="0" />
      </g>
      <g
         id="g2891"
         style="fill:#008484;fill-opacity:0;stroke:#008484;stroke-width:60;stroke-linecap:round;stroke-linejoin:round;stroke-opacity:1">
        <path
           id="path2879"
           d="m 62820,20800 v -500 h 120 l 70,30 40,40 30,50 20,100 v 70 l -20,90 -30,50 -40,50 -70,20 h -120"
           inkscape:connector-curvature="0" />
        <path
           id="path2881"
           d="m 63290,20350 30,-20 40,-30 h 120 l 50,30 20,20 30,50 v 40 l -30,80 -280,280 h 310"
           inkscape:connector-curvature="0" />
        <path
           id="path2883"
           d="m 63050,21710 h -230 v -500"
           inkscape:connector-curvature="0" />
        <path
           id="path2885"
           d="m 63220,21450 h 170"
           inkscape:connector-curvature="0" />
        <path
           id="path2887"
           d="m 63460,21710 h -240 v -500 h 240"
           inkscape:connector-curvature="0" />
        <path
           id="path2889"
           d="m 63670,21710 v -500 h 120 l 70,30 50,40 20,50 30,100 v 70 l -30,90 -20,50 -50,50 -70,20 h -120"
           inkscape:connector-curvature="0" />
      </g>
    </g>
    <g
       id="g2931"
       style="fill:#008484;fill-opacity:0;stroke:#008484;stroke-width:0;stroke-linecap:round;stroke-linejoin:round;stroke-opacity:1">
      <g
         id="g2895" />
      <g
         id="g2897"
         style="fill:#840000;fill-opacity:0;stroke:#840000;stroke-width:0;stroke-linecap:round;stroke-linejoin:round;stroke-opacity:1" />
      <g
         id="g2901"
         style="fill:#840000;fill-opacity:0;stroke:#840000;stroke-width:100;stroke-linecap:round;stroke-linejoin:round;stroke-opacity:1">
        <rect
           id="rect2899"
           rx="0"
           height="2000"
           width="800"
           y="14000"
           x="61100" />
      </g>
      <g
         id="g2907"
         style="fill:#840000;fill-opacity:0;stroke:#840000;stroke-width:60;stroke-linecap:round;stroke-linejoin:round;stroke-opacity:1">
        <path
           id="path2903"
           d="m 61500,16000 v 500"
           inkscape:connector-curvature="0" />
        <path
           id="path2905"
           d="m 61500,14000 v -500"
           inkscape:connector-curvature="0" />
      </g>
      <g
         id="g2929"
         style="fill:#008484;fill-opacity:0;stroke:#008484;stroke-width:60;stroke-linecap:round;stroke-linejoin:round;stroke-opacity:1">
        <path
           id="path2909"
           d="m 62630,15650 -160,-240"
           inkscape:connector-curvature="0" />
        <path
           id="path2911"
           d="m 62350,15650 v -500 h 190 l 40,30 30,20 20,50 v 70 l -20,50 -30,20 -40,20 h -190"
           inkscape:connector-curvature="0" />
        <path
           id="path2913"
           d="m 63110,15650 h -290"
           inkscape:connector-curvature="0" />
        <path
           id="path2915"
           d="m 62970,15650 v -500 l -50,70 -50,50 -50,20"
           inkscape:connector-curvature="0" />
        <path
           id="path2917"
           d="m 62290,14240 h 310 l -170,190 h 80 l 40,30 30,20 20,50 v 120 l -20,40 -30,30 -40,20 h -150 l -40,-20 -30,-30"
           inkscape:connector-curvature="0" />
        <path
           id="path2919"
           d="m 62820,14690 20,30 -20,20 -30,-20 30,-30 v 50"
           inkscape:connector-curvature="0" />
        <path
           id="path2921"
           d="m 63080,14740 h 90 l 50,-20 20,-30 50,-70 30,-90 v -190 l -30,-50 -20,-20 -50,-30 h -100 l -40,30 -30,20 -20,50 v 120 l 20,40 30,30 40,20 h 100 l 50,-20 20,-30 30,-40"
           inkscape:connector-curvature="0" />
        <path
           id="path2923"
           d="m 63530,14740 v -500"
           inkscape:connector-curvature="0" />
        <path
           id="path2925"
           d="m 63820,14740 -220,-280"
           inkscape:connector-curvature="0" />
        <path
           id="path2927"
           d="m 63820,14240 -290,290"
           inkscape:connector-curvature="0" />
      </g>
    </g>
    <g
       id="g2937"
       style="fill:#008400;fill-opacity:0;stroke:#008400;stroke-width:60;stroke-linecap:round;stroke-linejoin:round;stroke-opacity:1">
      <path
         id="path2933"
         d="m 61500,22500 v 2500"
         inkscape:connector-curvature="0" />
      <path
         id="path2935"
         d="m 61500,17500 v 2000"
         inkscape:connector-curvature="0" />
    </g>
    <g
       id="g2943"
       style="fill:#008400;fill-opacity:1;stroke:#008400;stroke-width:100;stroke-linecap:round;stroke-linejoin:round;stroke-opacity:1">
      <circle
         id="circle2941"
         r="200"
         cy="37500"
         cx="61500" />
    </g>
    <g
       id="g2949"
       style="fill:#008400;fill-opacity:0;stroke:#008400;stroke-width:60;stroke-linecap:round;stroke-linejoin:round;stroke-opacity:1">
      <path
         id="path2947"
         d="m 61500,37500 h 7500"
         inkscape:connector-curvature="0" />
    </g>
    <g
       id="g2989"
       style="fill:#008400;fill-opacity:0;stroke:#008400;stroke-width:0;stroke-linecap:round;stroke-linejoin:round;stroke-opacity:1">
      <g
         id="g2951" />
      <g
         id="g2953"
         style="fill:#840000;fill-opacity:0;stroke:#840000;stroke-width:0;stroke-linecap:round;stroke-linejoin:round;stroke-opacity:1" />
      <g
         id="g2959"
         style="fill:#840000;fill-opacity:1;stroke:#840000;stroke-width:60;stroke-linecap:round;stroke-linejoin:round;stroke-opacity:1">
        <rect
           id="rect2955"
           rx="0"
           height="100"
           width="1800"
           y="22800"
           x="53100" />
        <rect
           id="rect2957"
           rx="0"
           height="200"
           width="1200"
           y="23030"
           x="53380" />
      </g>
      <g
         id="g2965"
         style="fill:#840000;fill-opacity:0;stroke:#840000;stroke-width:60;stroke-linecap:round;stroke-linejoin:round;stroke-opacity:1">
        <path
           id="path2961"
           d="m 54000,23200 v 300 z"
           style="fill:none;fill-opacity:0;stroke:#840000;stroke-width:60;stroke-linecap:round;stroke-linejoin:round;stroke-opacity:1"
           inkscape:connector-curvature="0" />
        <path
           id="path2963"
           d="m 54000,22800 v -300 z"
           style="fill:none;fill-opacity:0;stroke:#840000;stroke-width:60;stroke-linecap:round;stroke-linejoin:round;stroke-opacity:1"
           inkscape:connector-curvature="0" />
      </g>
      <g
         id="g2971"
         style="fill:#840000;fill-opacity:0;stroke:#840000;stroke-width:100;stroke-linecap:round;stroke-linejoin:round;stroke-opacity:1">
        <path
           id="path2967"
           d="m 54200,22150 h 400 z"
           style="fill:none;fill-opacity:0;stroke:#840000;stroke-width:100;stroke-linecap:round;stroke-linejoin:round;stroke-opacity:1"
           inkscape:connector-curvature="0" />
        <path
           id="path2969"
           d="m 54400,21950 v 400 z"
           style="fill:none;fill-opacity:0;stroke:#840000;stroke-width:100;stroke-linecap:round;stroke-linejoin:round;stroke-opacity:1"
           inkscape:connector-curvature="0" />
      </g>
      <g
         id="g2977"
         style="fill:#840000;fill-opacity:0;stroke:#840000;stroke-width:60;stroke-linecap:round;stroke-linejoin:round;stroke-opacity:1">
        <path
           id="path2973"
           d="M 54000,22500 V 21500"
           inkscape:connector-curvature="0" />
        <path
           id="path2975"
           d="m 54000,23500 v 1000"
           inkscape:connector-curvature="0" />
      </g>
      <g
         id="g2987"
         style="fill:#008484;fill-opacity:0;stroke:#008484;stroke-width:60;stroke-linecap:round;stroke-linejoin:round;stroke-opacity:1">
        <path
           id="path2979"
           d="m 55540,22910 v 330"
           inkscape:connector-curvature="0" />
        <path
           id="path2981"
           d="m 55420,22720 -120,350 h 310"
           inkscape:connector-curvature="0" />
        <path
           id="path2983"
           d="m 55870,22960 -50,-30 -20,-20 -20,-50 v -20 l 20,-50 20,-20 50,-30 h 100 l 40,30 30,20 20,50 v 20 l -20,50 -30,20 -40,30 h -100 l -50,20 -20,20 -20,50 v 100 l 20,40 20,30 50,20 h 100 l 40,-20 30,-30 20,-40 v -100 l -20,-50 -30,-20 -40,-20"
           inkscape:connector-curvature="0" />
        <path
           id="path2985"
           d="m 56200,22740 170,500 170,-500"
           inkscape:connector-curvature="0" />
      </g>
    </g>
    <g
       id="g3033"
       style="fill:#008484;fill-opacity:0;stroke:#008484;stroke-width:0;stroke-linecap:round;stroke-linejoin:round;stroke-opacity:1">
      <g
         id="g2991" />
      <g
         id="g2993"
         style="fill:#840000;fill-opacity:0;stroke:#840000;stroke-width:0;stroke-linecap:round;stroke-linejoin:round;stroke-opacity:1" />
      <g
         id="g2999"
         style="fill:#840000;fill-opacity:1;stroke:#840000;stroke-width:60;stroke-linecap:round;stroke-linejoin:round;stroke-opacity:1">
        <rect
           id="rect2995"
           rx="0"
           height="100"
           width="1800"
           y="33800"
           x="68100" />
        <rect
           id="rect2997"
           rx="0"
           height="200"
           width="1200"
           y="34030"
           x="68380" />
      </g>
      <g
         id="g3005"
         style="fill:#840000;fill-opacity:0;stroke:#840000;stroke-width:60;stroke-linecap:round;stroke-linejoin:round;stroke-opacity:1">
        <path
           id="path3001"
           d="m 69000,34200 v 300 z"
           style="fill:none;fill-opacity:0;stroke:#840000;stroke-width:60;stroke-linecap:round;stroke-linejoin:round;stroke-opacity:1"
           inkscape:connector-curvature="0" />
        <path
           id="path3003"
           d="m 69000,33800 v -300 z"
           style="fill:none;fill-opacity:0;stroke:#840000;stroke-width:60;stroke-linecap:round;stroke-linejoin:round;stroke-opacity:1"
           inkscape:connector-curvature="0" />
      </g>
      <g
         id="g3011"
         style="fill:#840000;fill-opacity:0;stroke:#840000;stroke-width:100;stroke-linecap:round;stroke-linejoin:round;stroke-opacity:1">
        <path
           id="path3007"
           d="m 69200,33150 h 400 z"
           style="fill:none;fill-opacity:0;stroke:#840000;stroke-width:100;stroke-linecap:round;stroke-linejoin:round;stroke-opacity:1"
           inkscape:connector-curvature="0" />
        <path
           id="path3009"
           d="m 69400,32950 v 400 z"
           style="fill:none;fill-opacity:0;stroke:#840000;stroke-width:100;stroke-linecap:round;stroke-linejoin:round;stroke-opacity:1"
           inkscape:connector-curvature="0" />
      </g>
      <g
         id="g3017"
         style="fill:#840000;fill-opacity:0;stroke:#840000;stroke-width:60;stroke-linecap:round;stroke-linejoin:round;stroke-opacity:1">
        <path
           id="path3013"
           d="M 69000,33500 V 32500"
           inkscape:connector-curvature="0" />
        <path
           id="path3015"
           d="m 69000,34500 v 1000"
           inkscape:connector-curvature="0" />
      </g>
      <g
         id="g3031"
         style="fill:#008484;fill-opacity:0;stroke:#008484;stroke-width:60;stroke-linecap:round;stroke-linejoin:round;stroke-opacity:1">
        <path
           id="path3019"
           d="m 70590,34240 h -290"
           inkscape:connector-curvature="0" />
        <path
           id="path3021"
           d="m 70450,34240 v -500 l -50,70 -50,50 -50,20"
           inkscape:connector-curvature="0" />
        <path
           id="path3023"
           d="m 70800,34190 30,30 -30,20 -20,-20 20,-30 v 50"
           inkscape:connector-curvature="0" />
        <path
           id="path3025"
           d="m 71020,33790 20,-20 50,-30 h 120 l 50,30 20,20 20,50 v 40 l -20,80 -290,280 h 310"
           inkscape:connector-curvature="0" />
        <path
           id="path3027"
           d="m 71760,33740 h -240 l -30,240 30,-20 40,-30 h 120 l 50,30 30,20 20,50 v 120 l -20,40 -30,30 -50,20 h -120 l -40,-20 -30,-30"
           inkscape:connector-curvature="0" />
        <path
           id="path3029"
           d="m 71920,33740 170,500 170,-500"
           inkscape:connector-curvature="0" />
      </g>
    </g>
    <g
       id="g3047"
       style="fill:#008400;fill-opacity:0;stroke:#008400;stroke-width:60;stroke-linecap:round;stroke-linejoin:round;stroke-opacity:1">
      <path
         id="path3035"
         d="m 54000,12500 v 9000"
         inkscape:connector-curvature="0" />
      <path
         id="path3037"
         d="m 54000,12500 h 7500"
         inkscape:connector-curvature="0" />
      <path
         id="path3039"
         d="M 54000,24500 V 37500"
         inkscape:connector-curvature="0" />
      <path
         id="path3041"
         d="m 54000,37500 h 7500"
         inkscape:connector-curvature="0" />
      <path
         id="path3043"
         d="m 61500,12500 v 1000"
         inkscape:connector-curvature="0" />
      <path
         id="path3045"
         d="m 61500,16500 v 1000"
         inkscape:connector-curvature="0" />
    </g>
    <g
       id="g3053"
       style="fill:#008400;fill-opacity:1;stroke:#008400;stroke-width:100;stroke-linecap:round;stroke-linejoin:round;stroke-opacity:1">
      <circle
         id="circle3051"
         r="200"
         cy="17500"
         cx="61500" />
    </g>
    <g
       id="g3061"
       style="fill:#008400;fill-opacity:0;stroke:#008400;stroke-width:60;stroke-linecap:round;stroke-linejoin:round;stroke-opacity:1">
      <path
         id="path3057"
         d="m 69000,31000 v 500"
         inkscape:connector-curvature="0" />
      <path
         id="path3059"
         d="M 69000,37500 V 35500"
         inkscape:connector-curvature="0" />
    </g>
    <g
       id="g3153"
       style="fill:#008400;fill-opacity:0;stroke:#008400;stroke-width:0;stroke-linecap:round;stroke-linejoin:round;stroke-opacity:1">
      <g
         id="g3063" />
      <g
         id="g3065"
         style="fill:#840000;fill-opacity:0;stroke:#840000;stroke-width:0;stroke-linecap:round;stroke-linejoin:round;stroke-opacity:1" />
      <g
         id="g3073"
         style="fill:#840000;fill-opacity:0;stroke:#840000;stroke-width:60;stroke-linecap:round;stroke-linejoin:round;stroke-opacity:1">
        <circle
           id="circle3067"
           r="2000"
           cy="30000"
           cx="81000" />
        <circle
           id="circle3069"
           r="2020"
           cy="32000"
           cx="81000" />
        <path
           id="path3071"
           d="m 83700,31100 v -500"
           inkscape:connector-curvature="0" />
      </g>
      <g
         id="g3079"
         style="fill:#840000;fill-opacity:1;stroke:#840000;stroke-width:60;stroke-linecap:round;stroke-linejoin:round;stroke-opacity:1">
        <path
           id="path3075"
           d="m 84000,29000 v 4000 z"
           style="fill:#840000;fill-opacity:1;fill-rule:evenodd;stroke:#840000;stroke-width:60;stroke-linecap:round;stroke-linejoin:round;stroke-opacity:1"
           inkscape:connector-curvature="0" />
        <path
           id="path3077"
           d="m 84500,33000 -500,1000 -500,-1000 z"
           style="fill:#840000;fill-opacity:1;fill-rule:evenodd;stroke:#840000;stroke-width:60;stroke-linecap:round;stroke-linejoin:round;stroke-opacity:1"
           inkscape:connector-curvature="0" />
      </g>
      <g
         id="g3083"
         style="fill:#840000;fill-opacity:0;stroke:#840000;stroke-width:60;stroke-linecap:round;stroke-linejoin:round;stroke-opacity:1">
        <path
           id="path3081"
           d="m 81000,34000 v 1000"
           inkscape:connector-curvature="0" />
      </g>
      <g
         id="g3093"
         style="fill:#008484;fill-opacity:0;stroke:#008484;stroke-width:60;stroke-linecap:round;stroke-linejoin:round;stroke-opacity:1">
        <path
           id="path3085"
           d="m 80960,33450 v -170"
           inkscape:connector-curvature="0" />
        <path
           id="path3087"
           d="m 81220,33210 v 240 h -500 v -240"
           inkscape:connector-curvature="0" />
        <path
           id="path3089"
           d="m 81220,32730 v 290"
           inkscape:connector-curvature="0" />
        <path
           id="path3091"
           d="m 81220,32870 h -500 l 70,50 50,50 20,50"
           inkscape:connector-curvature="0" />
      </g>
      <g
         id="g3101"
         style="fill:#840000;fill-opacity:0;stroke:#840000;stroke-width:60;stroke-linecap:round;stroke-linejoin:round;stroke-opacity:1">
        <path
           id="path3095"
           d="m 80870,34350 v 290"
           inkscape:connector-curvature="0" />
        <path
           id="path3097"
           d="m 80870,34500 h -500 l 70,40 50,50 20,50"
           inkscape:connector-curvature="0" />
        <path
           id="path3099"
           d="M 81000,28000 V 27000"
           inkscape:connector-curvature="0" />
      </g>
      <g
         id="g3109"
         style="fill:#008484;fill-opacity:0;stroke:#008484;stroke-width:60;stroke-linecap:round;stroke-linejoin:round;stroke-opacity:1">
        <path
           id="path3103"
           d="m 80960,29230 v -160"
           inkscape:connector-curvature="0" />
        <path
           id="path3105"
           d="m 81220,29000 v 230 h -500 v -230"
           inkscape:connector-curvature="0" />
        <path
           id="path3107"
           d="m 80770,28810 -20,-30 -30,-50 v -110 l 30,-50 20,-30 50,-20 h 40 l 80,20 280,290 v -310"
           inkscape:connector-curvature="0" />
      </g>
      <g
         id="g3113"
         style="fill:#840000;fill-opacity:0;stroke:#840000;stroke-width:60;stroke-linecap:round;stroke-linejoin:round;stroke-opacity:1">
        <path
           id="path3111"
           d="m 80420,27640 -20,-30 -30,-40 v -120 l 30,-50 20,-20 50,-30 h 40 l 80,30 280,280 v -310"
           inkscape:connector-curvature="0" />
      </g>
      <g
         id="g3151"
         style="fill:#008484;fill-opacity:0;stroke:#008484;stroke-width:60;stroke-linecap:round;stroke-linejoin:round;stroke-opacity:1">
        <path
           id="path3115"
           d="m 85160,31190 h -230 v -500"
           inkscape:connector-curvature="0" />
        <path
           id="path3117"
           d="m 85330,31190 v -500 l 170,360 160,-360 v 500"
           inkscape:connector-curvature="0" />
        <path
           id="path3119"
           d="m 85850,30690 h 310 l -160,190 h 70 l 50,30 20,20 20,50 v 120 l -20,40 -20,30 -50,20 h -140 l -50,-20 -30,-30"
           inkscape:connector-curvature="0" />
        <path
           id="path3121"
           d="m 86400,31190 h 100 l 40,-20 30,-30 50,-70 20,-90 v -190 l -20,-50 -30,-20 -50,-30 h -90 l -50,30 -20,20 -30,50 v 120 l 30,40 20,30 50,20 h 90 l 50,-20 30,-30 20,-40"
           inkscape:connector-curvature="0" />
        <path
           id="path3123"
           d="m 87120,31190 h -290"
           inkscape:connector-curvature="0" />
        <path
           id="path3125"
           d="m 86970,31190 v -500 l -40,70 -50,50 -50,20"
           inkscape:connector-curvature="0" />
        <path
           id="path3127"
           d="m 87540,30860 v 330"
           inkscape:connector-curvature="0" />
        <path
           id="path3129"
           d="m 87430,30670 -120,350 h 310"
           inkscape:connector-curvature="0" />
        <path
           id="path3131"
           d="m 87730,30690 170,500 170,-500"
           inkscape:connector-curvature="0" />
        <path
           id="path3133"
           d="m 88620,31000 h 380"
           inkscape:connector-curvature="0" />
        <path
           id="path3135"
           d="m 89880,31190 h -290"
           inkscape:connector-curvature="0" />
        <path
           id="path3137"
           d="m 89730,31190 v -500 l -40,70 -50,50 -50,20"
           inkscape:connector-curvature="0" />
        <path
           id="path3139"
           d="m 90190,30690 h 40 l 50,30 30,20 20,50 20,90 v 120 l -20,100 -20,40 -30,30 -50,20 h -40 l -50,-20 -20,-30 -30,-40 -20,-100 v -120 l 20,-90 30,-50 20,-20 50,-30"
           inkscape:connector-curvature="0" />
        <path
           id="path3141"
           d="m 90570,31190 v -330"
           inkscape:connector-curvature="0" />
        <path
           id="path3143"
           d="m 90570,30910 20,-30 50,-20 h 70 l 50,20 20,50 v 260"
           inkscape:connector-curvature="0" />
        <path
           id="path3145"
           d="m 90780,30930 30,-50 40,-20 h 80 l 40,20 30,50 v 260"
           inkscape:connector-curvature="0" />
        <path
           id="path3147"
           d="m 91210,31050 h 240"
           inkscape:connector-curvature="0" />
        <path
           id="path3149"
           d="m 91160,31190 170,-500 170,500"
           inkscape:connector-curvature="0" />
      </g>
    </g>
    <g
       id="g3219"
       style="fill:#008484;fill-opacity:0;stroke:#008484;stroke-width:0;stroke-linecap:round;stroke-linejoin:round;stroke-opacity:1">
      <g
         id="g3155" />
      <g
         id="g3157"
         style="fill:#840000;fill-opacity:0;stroke:#840000;stroke-width:0;stroke-linecap:round;stroke-linejoin:round;stroke-opacity:1" />
      <g
         id="g3165"
         style="fill:#840000;fill-opacity:0;stroke:#840000;stroke-width:60;stroke-linecap:round;stroke-linejoin:round;stroke-opacity:1">
        <circle
           id="circle3159"
           r="2000"
           cy="29000"
           cx="61500" />
        <circle
           id="circle3161"
           r="2020"
           cy="31000"
           cx="61500" />
        <path
           id="path3163"
           d="m 64200,30100 v -500"
           inkscape:connector-curvature="0" />
      </g>
      <g
         id="g3171"
         style="fill:#840000;fill-opacity:1;stroke:#840000;stroke-width:60;stroke-linecap:round;stroke-linejoin:round;stroke-opacity:1">
        <path
           id="path3167"
           d="m 64500,28000 v 4000 z"
           style="fill:#840000;fill-opacity:1;fill-rule:evenodd;stroke:#840000;stroke-width:60;stroke-linecap:round;stroke-linejoin:round;stroke-opacity:1"
           inkscape:connector-curvature="0" />
        <path
           id="path3169"
           d="m 65000,32000 -500,1000 -500,-1000 z"
           style="fill:#840000;fill-opacity:1;fill-rule:evenodd;stroke:#840000;stroke-width:60;stroke-linecap:round;stroke-linejoin:round;stroke-opacity:1"
           inkscape:connector-curvature="0" />
      </g>
      <g
         id="g3175"
         style="fill:#840000;fill-opacity:0;stroke:#840000;stroke-width:60;stroke-linecap:round;stroke-linejoin:round;stroke-opacity:1">
        <path
           id="path3173"
           d="m 61500,33000 v 1000"
           inkscape:connector-curvature="0" />
      </g>
      <g
         id="g3185"
         style="fill:#008484;fill-opacity:0;stroke:#008484;stroke-width:60;stroke-linecap:round;stroke-linejoin:round;stroke-opacity:1">
        <path
           id="path3177"
           d="m 61460,32450 v -170"
           inkscape:connector-curvature="0" />
        <path
           id="path3179"
           d="m 61720,32210 v 240 h -500 v -240"
           inkscape:connector-curvature="0" />
        <path
           id="path3181"
           d="m 61720,31730 v 290"
           inkscape:connector-curvature="0" />
        <path
           id="path3183"
           d="m 61720,31870 h -500 l 70,50 50,50 20,50"
           inkscape:connector-curvature="0" />
      </g>
      <g
         id="g3193"
         style="fill:#840000;fill-opacity:0;stroke:#840000;stroke-width:60;stroke-linecap:round;stroke-linejoin:round;stroke-opacity:1">
        <path
           id="path3187"
           d="m 61370,33350 v 290"
           inkscape:connector-curvature="0" />
        <path
           id="path3189"
           d="m 61370,33500 h -500 l 70,40 50,50 20,50"
           inkscape:connector-curvature="0" />
        <path
           id="path3191"
           d="M 61500,27000 V 26000"
           inkscape:connector-curvature="0" />
      </g>
      <g
         id="g3201"
         style="fill:#008484;fill-opacity:0;stroke:#008484;stroke-width:60;stroke-linecap:round;stroke-linejoin:round;stroke-opacity:1">
        <path
           id="path3195"
           d="m 61460,28230 v -160"
           inkscape:connector-curvature="0" />
        <path
           id="path3197"
           d="m 61720,28000 v 230 h -500 v -230"
           inkscape:connector-curvature="0" />
        <path
           id="path3199"
           d="m 61270,27810 -20,-30 -30,-50 v -110 l 30,-50 20,-30 50,-20 h 40 l 80,20 280,290 v -310"
           inkscape:connector-curvature="0" />
      </g>
      <g
         id="g3205"
         style="fill:#840000;fill-opacity:0;stroke:#840000;stroke-width:60;stroke-linecap:round;stroke-linejoin:round;stroke-opacity:1">
        <path
           id="path3203"
           d="m 60920,26640 -20,-30 -30,-40 v -120 l 30,-50 20,-20 50,-30 h 40 l 80,30 280,280 v -310"
           inkscape:connector-curvature="0" />
      </g>
      <g
         id="g3217"
         style="fill:#008484;fill-opacity:0;stroke:#008484;stroke-width:60;stroke-linecap:round;stroke-linejoin:round;stroke-opacity:1">
        <path
           id="path3207"
           d="m 65570,29910 40,20 30,20 20,50 v 100 l -20,40 -30,30 -40,20 h -80 l -40,-20 -30,-30"
           inkscape:connector-curvature="0" />
        <path
           id="path3209"
           d="m 65380,30360 20,-30 20,-40 v -530 l 30,-40 40,-30 h 80 l 40,30 30,40 v 70 l -30,50 -40,30 h -50"
           inkscape:connector-curvature="0" />
        <path
           id="path3211"
           d="m 65880,30190 v -500"
           inkscape:connector-curvature="0" />
        <path
           id="path3213"
           d="m 66110,30190 v -500"
           inkscape:connector-curvature="0" />
        <path
           id="path3215"
           d="m 66110,29880 50,-20 h 100 l 40,20 30,30 20,40 v 150 l -20,40 -30,30 -40,20 h -100 l -50,-20"
           inkscape:connector-curvature="0" />
      </g>
    </g>
    <g
       id="g3223"
       style="fill:#008400;fill-opacity:0;stroke:#008400;stroke-width:60;stroke-linecap:round;stroke-linejoin:round;stroke-opacity:1">
      <path
         id="path3221"
         d="m 61500,34000 v 3500"
         inkscape:connector-curvature="0" />
    </g>
    <g
       id="g3257"
       style="fill:#008400;fill-opacity:0;stroke:#008400;stroke-width:0;stroke-linecap:round;stroke-linejoin:round;stroke-opacity:1">
      <g
         id="g3225" />
      <g
         id="g3227"
         style="fill:#840000;fill-opacity:0;stroke:#840000;stroke-width:0;stroke-linecap:round;stroke-linejoin:round;stroke-opacity:1" />
      <g
         id="g3231"
         style="fill:#840000;fill-opacity:0;stroke:#840000;stroke-width:80;stroke-linecap:round;stroke-linejoin:round;stroke-opacity:1">
        <path
           id="path3229"
           d="m 68500,30000 h 1000 z"
           style="fill:none;fill-opacity:0;stroke:#840000;stroke-width:80;stroke-linecap:round;stroke-linejoin:round;stroke-opacity:1"
           inkscape:connector-curvature="0" />
      </g>
      <g
         id="g3235"
         style="fill:#840000;fill-opacity:0;stroke:#840000;stroke-width:60;stroke-linecap:round;stroke-linejoin:round;stroke-opacity:1">
        <path
           id="path3233"
           d="m 69000,29000 v 1000 z"
           style="fill:none;fill-opacity:0;stroke:#840000;stroke-width:60;stroke-linecap:round;stroke-linejoin:round;stroke-opacity:1"
           inkscape:connector-curvature="0" />
      </g>
      <g
         id="g3239"
         style="fill:#840000;fill-opacity:0;stroke:#840000;stroke-width:80;stroke-linecap:round;stroke-linejoin:round;stroke-opacity:1">
        <path
           id="path3237"
           d="m 68500,29000 h 1000 l -500,1000 z"
           style="fill:none;fill-opacity:0;stroke:#840000;stroke-width:80;stroke-linecap:round;stroke-linejoin:round;stroke-opacity:1"
           inkscape:connector-curvature="0" />
      </g>
      <g
         id="g3245"
         style="fill:#840000;fill-opacity:0;stroke:#840000;stroke-width:60;stroke-linecap:round;stroke-linejoin:round;stroke-opacity:1">
        <path
           id="path3241"
           d="m 69000,30000 v 1000"
           inkscape:connector-curvature="0" />
        <path
           id="path3243"
           d="M 69000,29000 V 28000"
           inkscape:connector-curvature="0" />
      </g>
      <g
         id="g3255"
         style="fill:#008484;fill-opacity:0;stroke:#008484;stroke-width:60;stroke-linecap:round;stroke-linejoin:round;stroke-opacity:1">
        <path
           id="path3247"
           d="m 69930,29690 v -500 h 120 l 70,30 50,40 30,50 20,100 v 70 l -20,90 -30,50 -50,50 -70,20 h -120"
           inkscape:connector-curvature="0" />
        <path
           id="path3249"
           d="m 70620,29670 -40,20 h -100 l -50,-20 -20,-50 v -190 l 20,-50 50,-20 h 100 l 40,20 30,50 v 50 l -240,40"
           inkscape:connector-curvature="0" />
        <path
           id="path3251"
           d="m 70860,29690 v -500"
           inkscape:connector-curvature="0" />
        <path
           id="path3253"
           d="m 70860,29380 50,-20 h 100 l 40,20 30,30 20,40 v 150 l -20,40 -30,30 -40,20 h -100 l -50,-20"
           inkscape:connector-curvature="0" />
      </g>
    </g>
    <g
       id="g3263"
       style="fill:#008400;fill-opacity:0;stroke:#008400;stroke-width:60;stroke-linecap:round;stroke-linejoin:round;stroke-opacity:1">
      <path
         id="path3259"
         d="m 61500,25000 h 7500"
         inkscape:connector-curvature="0" />
      <path
         id="path3261"
         d="m 69000,25000 v 3000"
         inkscape:connector-curvature="0" />
    </g>
    <g
       id="g3269"
       style="fill:#008400;fill-opacity:1;stroke:#008400;stroke-width:100;stroke-linecap:round;stroke-linejoin:round;stroke-opacity:1">
      <circle
         id="circle3267"
         r="200"
         cy="25000"
         cx="61500" />
    </g>
    <g
       id="g3275"
       style="fill:#008400;fill-opacity:0;stroke:#008400;stroke-width:60;stroke-linecap:round;stroke-linejoin:round;stroke-opacity:1">
      <path
         id="path3273"
         d="m 61500,25000 v 1000"
         inkscape:connector-curvature="0" />
    </g>
    <g
       id="g3293"
       style="fill:#0000c2;fill-opacity:0;stroke:#0000c2;stroke-width:100;stroke-linecap:round;stroke-linejoin:round;stroke-opacity:1">
      <path
         id="path3279"
         d="m 62110,16350 160,500 170,-500"
         inkscape:connector-curvature="0" />
      <path
         id="path3281"
         d="m 62610,16660 h 380"
         inkscape:connector-curvature="0" />
      <path
         id="path3283"
         d="m 62800,16850 v -380"
         inkscape:connector-curvature="0" />
      <path
         id="path3285"
         d="m 62180,24090 h 170"
         inkscape:connector-curvature="0" />
      <path
         id="path3287"
         d="m 62420,24350 h -240 v -500 h 240"
         inkscape:connector-curvature="0" />
      <path
         id="path3289"
         d="m 68350,31590 70,20 20,30 20,40 v 80 l -20,40 -20,30 -50,20 h -190 v -500 h 170 l 40,30 30,20 20,50 v 40 l -20,50 -30,30 -40,20 h -170"
         inkscape:connector-curvature="0" />
      <path
         id="path3291"
         d="m 62460,34800 -20,30 -70,20 h -50 l -70,-20 -50,-50 -20,-50 -20,-90 v -70 l 20,-100 20,-50 50,-40 70,-30 h 50 l 70,30 20,20"
         inkscape:connector-curvature="0" />
    </g>
    <g
       id="g3303"
       style="fill:#008400;fill-opacity:0;stroke:#008400;stroke-width:60;stroke-linecap:round;stroke-linejoin:round;stroke-opacity:1">
      <path
         id="path3297"
         d="m 81000,17500 v 9500"
         inkscape:connector-curvature="0" />
      <path
         id="path3299"
         d="M 61500,17500 H 81000"
         inkscape:connector-curvature="0" />
      <path
         id="path3301"
         d="m 81000,35000 v 2500"
         inkscape:connector-curvature="0" />
    </g>
    <g
       id="g3309"
       style="fill:#008400;fill-opacity:1;stroke:#008400;stroke-width:100;stroke-linecap:round;stroke-linejoin:round;stroke-opacity:1">
      <circle
         id="circle3307"
         r="200"
         cy="37500"
         cx="69000" />
    </g>
    <g
       id="g3323"
       style="fill:#008400;fill-opacity:1;stroke:#008400;stroke-width:0;stroke-linecap:round;stroke-linejoin:round;stroke-opacity:1">
      <g
         id="g3311" />
      <g
         id="g3313"
         style="fill:#840000;fill-opacity:1;stroke:#840000;stroke-width:0;stroke-linecap:round;stroke-linejoin:round;stroke-opacity:1" />
      <g
         id="g3317"
         style="fill:#840000;fill-opacity:0;stroke:#840000;stroke-width:100;stroke-linecap:round;stroke-linejoin:round;stroke-opacity:1">
        <path
           id="path3315"
           d="M 71500,30100 V 28500 Z"
           style="fill:none;fill-opacity:0;stroke:#840000;stroke-width:100;stroke-linecap:round;stroke-linejoin:round;stroke-opacity:1"
           inkscape:connector-curvature="0" />
      </g>
      <g
         id="g3321"
         style="fill:#840000;fill-opacity:1;stroke:#840000;stroke-width:60;stroke-linecap:round;stroke-linejoin:round;stroke-opacity:1">
        <path
           id="path3319"
           d="m 71500,30500 -200,-700 h 400 z"
           style="fill:#840000;fill-opacity:1;fill-rule:evenodd;stroke:#840000;stroke-width:60;stroke-linecap:round;stroke-linejoin:round;stroke-opacity:1"
           inkscape:connector-curvature="0" />
      </g>
    </g>
    <g
       id="g3333"
       style="fill:#0000c2;fill-opacity:0;stroke:#0000c2;stroke-width:100;stroke-linecap:round;stroke-linejoin:round;stroke-opacity:1">
      <path
         id="path3327"
         d="m 72180,29350 v -500"
         inkscape:connector-curvature="0" />
      <path
         id="path3329"
         d="m 72420,29350 v -500"
         inkscape:connector-curvature="0" />
      <path
         id="path3331"
         d="m 72420,29040 40,-20 h 100 l 50,20 20,30 30,40 v 150 l -30,40 -20,30 -50,20 h -100 l -40,-20"
         inkscape:connector-curvature="0" />
    </g>
    <g
       id="g3363"
       style="fill:#0000c2;fill-opacity:0;stroke:#0000c2;stroke-width:0;stroke-linecap:round;stroke-linejoin:round;stroke-opacity:1">
      <g
         id="g3335" />
      <g
         id="g3337"
         style="fill:#840000;fill-opacity:0;stroke:#840000;stroke-width:0;stroke-linecap:round;stroke-linejoin:round;stroke-opacity:1" />
      <g
         id="g3341"
         style="fill:#840000;fill-opacity:0;stroke:#840000;stroke-width:100;stroke-linecap:round;stroke-linejoin:round;stroke-opacity:1">
        <rect
           id="rect3339"
           rx="0"
           height="2000"
           width="800"
           y="33000"
           x="75100" />
      </g>
      <g
         id="g3347"
         style="fill:#840000;fill-opacity:0;stroke:#840000;stroke-width:60;stroke-linecap:round;stroke-linejoin:round;stroke-opacity:1">
        <path
           id="path3343"
           d="m 75500,35000 v 500"
           inkscape:connector-curvature="0" />
        <path
           id="path3345"
           d="m 75500,33000 v -500"
           inkscape:connector-curvature="0" />
      </g>
      <g
         id="g3361"
         style="fill:#008484;fill-opacity:0;stroke:#008484;stroke-width:60;stroke-linecap:round;stroke-linejoin:round;stroke-opacity:1">
        <path
           id="path3349"
           d="m 74200,33730 -160,-240"
           inkscape:connector-curvature="0" />
        <path
           id="path3351"
           d="m 73920,33730 v -500 h 190 l 40,30 30,20 20,50 v 70 l -20,50 -30,20 -40,20 h -190"
           inkscape:connector-curvature="0" />
        <path
           id="path3353"
           d="m 74370,33230 h 310 l -170,190 h 70 l 50,30 20,20 30,50 v 120 l -30,40 -20,30 -50,20 h -140 l -50,-20 -20,-30"
           inkscape:connector-curvature="0" />
        <path
           id="path3355"
           d="m 73670,34140 h -90 l -50,30 -20,20 -50,70 -20,100 v 190 l 20,40 20,30 50,20 h 100 l 40,-20 30,-30 20,-40 v -120 l -20,-50 -30,-20 -40,-30 h -100 l -50,30 -20,20 -20,50"
           inkscape:connector-curvature="0" />
        <path
           id="path3357"
           d="m 73910,34190 30,-20 40,-30 h 120 l 50,30 20,20 30,50 v 40 l -30,80 -280,280 h 310"
           inkscape:connector-curvature="0" />
        <path
           id="path3359"
           d="m 74510,34140 h 50 l 40,30 30,20 20,50 20,90 v 120 l -20,100 -20,40 -30,30 -40,20 h -50 l -50,-20 -20,-30 -30,-40 -20,-100 v -120 l 20,-90 30,-50 20,-20 50,-30"
           inkscape:connector-curvature="0" />
      </g>
    </g>
    <g
       id="g3371"
       style="fill:#008400;fill-opacity:0;stroke:#008400;stroke-width:60;stroke-linecap:round;stroke-linejoin:round;stroke-opacity:1">
      <path
         id="path3365"
         d="m 69000,37500 h 6500"
         inkscape:connector-curvature="0" />
      <path
         id="path3367"
         d="m 69000,31500 h 6500"
         inkscape:connector-curvature="0" />
      <path
         id="path3369"
         d="m 75500,31500 v 1000"
         inkscape:connector-curvature="0" />
    </g>
    <g
       id="g3377"
       style="fill:#008400;fill-opacity:1;stroke:#008400;stroke-width:100;stroke-linecap:round;stroke-linejoin:round;stroke-opacity:1">
      <circle
         id="circle3375"
         r="200"
         cy="31500"
         cx="69000" />
    </g>
    <g
       id="g3385"
       style="fill:#008400;fill-opacity:0;stroke:#008400;stroke-width:60;stroke-linecap:round;stroke-linejoin:round;stroke-opacity:1">
      <path
         id="path3381"
         d="m 69000,31500 v 1000"
         inkscape:connector-curvature="0" />
      <path
         id="path3383"
         d="m 75500,35500 v 2000"
         inkscape:connector-curvature="0" />
    </g>
    <g
       id="g3391"
       style="fill:#008400;fill-opacity:1;stroke:#008400;stroke-width:100;stroke-linecap:round;stroke-linejoin:round;stroke-opacity:1">
      <circle
         id="circle3389"
         r="200"
         cy="37500"
         cx="75500" />
    </g>
    <g
       id="g3397"
       style="fill:#008400;fill-opacity:0;stroke:#008400;stroke-width:60;stroke-linecap:round;stroke-linejoin:round;stroke-opacity:1">
      <path
         id="path3395"
         d="m 75500,37500 h 5500"
         inkscape:connector-curvature="0" />
    </g>
  </g>
</svg>
