<?xml version="1.0" encoding="UTF-8" standalone="no"?>
<svg
   xmlns:dc="http://purl.org/dc/elements/1.1/"
   xmlns:cc="http://creativecommons.org/ns#"
   xmlns:rdf="http://www.w3.org/1999/02/22-rdf-syntax-ns#"
   xmlns:svg="http://www.w3.org/2000/svg"
   xmlns="http://www.w3.org/2000/svg"
   xmlns:sodipodi="http://sodipodi.sourceforge.net/DTD/sodipodi-0.dtd"
   xmlns:inkscape="http://www.inkscape.org/namespaces/inkscape"
   version="1.1"
   width="640"
   height="200"
   viewBox="0 0 66666.713 20833.354"
   id="svg12845"
   sodipodi:docname="20-segment-vref.svg"
   inkscape:version="0.92.4 (5da689c313, 2019-01-14)">
  <metadata
     id="metadata12851">
    <rdf:RDF>
      <cc:Work
         rdf:about="">
        <dc:format>image/svg+xml</dc:format>
        <dc:type
           rdf:resource="http://purl.org/dc/dcmitype/StillImage" />
        <dc:title>SVG Picture created as 30-volt-30-led.svg date 2019/05/26 10:02:53 </dc:title>
      </cc:Work>
    </rdf:RDF>
  </metadata>
  <defs
     id="defs12849" />
  <sodipodi:namedview
     pagecolor="#ffffff"
     bordercolor="#666666"
     borderopacity="1"
     objecttolerance="10"
     gridtolerance="10"
     guidetolerance="10"
     inkscape:pageopacity="0"
     inkscape:pageshadow="2"
     inkscape:window-width="1920"
     inkscape:window-height="1043"
     id="namedview12847"
     showgrid="false"
     units="px"
     inkscape:zoom="1.6531378"
     inkscape:cx="418.83153"
     inkscape:cy="116.92925"
     inkscape:window-x="0"
     inkscape:window-y="0"
     inkscape:window-maximized="1"
     inkscape:current-layer="svg12845" />
  <title
     id="title9363">SVG Picture created as 30-volt-30-led.svg date 2019/05/26 10:02:53 </title>
  <desc
     id="desc9365">Picture generated by Eeschema-SVG </desc>
  <g
     style="fill:#008400;fill-opacity:0;stroke:#008400;stroke-width:0;stroke-linecap:round;stroke-linejoin:round;stroke-opacity:1"
     id="g12281"
     transform="matrix(1.3,0,0,1.3,-79804.601,-12718.266)">
    <g
       id="g12235" />
    <g
       style="fill:#840000;fill-opacity:0;stroke:#840000;stroke-width:0;stroke-linecap:round;stroke-linejoin:round;stroke-opacity:1"
       id="g12237" />
    <g
       style="fill:#840000;fill-opacity:1;stroke:#840000;stroke-width:60;stroke-linecap:round;stroke-linejoin:round;stroke-opacity:1"
       id="g12243">
      <rect
         x="79100"
         y="16600"
         width="100"
         height="1800"
         rx="0"
         id="rect12239" />
      <rect
         x="78770"
         y="16920"
         width="200"
         height="1200"
         rx="0"
         id="rect12241" />
    </g>
    <g
       style="fill:#840000;fill-opacity:0;stroke:#840000;stroke-width:60;stroke-linecap:round;stroke-linejoin:round;stroke-opacity:1"
       id="g12249">
      <path
         style="fill:none;fill-opacity:0;stroke:#840000;stroke-width:60;stroke-linecap:round;stroke-linejoin:round;stroke-opacity:1"
         d="m 78800,17500 h -300 z"
         id="path12245"
         inkscape:connector-curvature="0" />
      <path
         style="fill:none;fill-opacity:0;stroke:#840000;stroke-width:60;stroke-linecap:round;stroke-linejoin:round;stroke-opacity:1"
         d="m 79200,17500 h 300 z"
         id="path12247"
         inkscape:connector-curvature="0" />
    </g>
    <g
       style="fill:#840000;fill-opacity:0;stroke:#840000;stroke-width:100;stroke-linecap:round;stroke-linejoin:round;stroke-opacity:1"
       id="g12255">
      <path
         style="fill:none;fill-opacity:0;stroke:#840000;stroke-width:100;stroke-linecap:round;stroke-linejoin:round;stroke-opacity:1"
         d="m 79850,17300 v -400 z"
         id="path12251"
         inkscape:connector-curvature="0" />
      <path
         style="fill:none;fill-opacity:0;stroke:#840000;stroke-width:100;stroke-linecap:round;stroke-linejoin:round;stroke-opacity:1"
         d="m 80050,17100 h -400 z"
         id="path12253"
         inkscape:connector-curvature="0" />
    </g>
    <g
       style="fill:#840000;fill-opacity:0;stroke:#840000;stroke-width:60;stroke-linecap:round;stroke-linejoin:round;stroke-opacity:1"
       id="g12261">
      <path
         d="m 79500,17500 h 1000"
         id="path12257"
         inkscape:connector-curvature="0" />
      <path
         d="M 78500,17500 H 77500"
         id="path12259"
         inkscape:connector-curvature="0" />
    </g>
    <g
       style="fill:#008484;fill-opacity:0;stroke:#008484;stroke-width:60;stroke-linecap:round;stroke-linejoin:round;stroke-opacity:1"
       id="g12279">
      <path
         d="m 78080,15560 170,500 160,-500"
         id="path12263"
         inkscape:connector-curvature="0" />
      <path
         d="m 78580,16060 v -330"
         id="path12265"
         inkscape:connector-curvature="0" />
      <path
         d="m 78580,15820 20,-40 30,-30 40,-20 h 50"
         id="path12267"
         inkscape:connector-curvature="0" />
      <path
         d="m 79080,16040 -50,20 h -90 l -50,-20 -30,-50 v -190 l 30,-50 50,-20 h 90 l 50,20 20,50 v 50 l -240,40"
         id="path12269"
         inkscape:connector-curvature="0" />
      <path
         d="m 79250,15730 h 190"
         id="path12271"
         inkscape:connector-curvature="0" />
      <path
         d="m 79320,16060 v -430 l 20,-40 50,-30 h 50"
         id="path12273"
         inkscape:connector-curvature="0" />
      <path
         d="m 79860,16060 h -280"
         id="path12275"
         inkscape:connector-curvature="0" />
      <path
         d="m 79720,16060 v -500 l -50,70 -40,50 -50,20"
         id="path12277"
         inkscape:connector-curvature="0" />
    </g>
  </g>
  <g
     style="fill:#008484;fill-opacity:0;stroke:#008484;stroke-width:0;stroke-linecap:round;stroke-linejoin:round;stroke-opacity:1"
     id="g12299"
     transform="matrix(1.3,0,0,1.3,-79804.601,-12718.266)">
    <g
       id="g12283" />
    <g
       style="fill:#840000;fill-opacity:0;stroke:#840000;stroke-width:0;stroke-linecap:round;stroke-linejoin:round;stroke-opacity:1"
       id="g12285" />
    <g
       style="fill:#840000;fill-opacity:0;stroke:#840000;stroke-width:60;stroke-linecap:round;stroke-linejoin:round;stroke-opacity:1"
       id="g12289">
      <path
         style="fill:none;fill-opacity:0;stroke:#840000;stroke-width:60;stroke-linecap:round;stroke-linejoin:round;stroke-opacity:1"
         d="m 76000,23000 v 500 h 500 l -500,500 -500,-500 h 500 z"
         id="path12287"
         inkscape:connector-curvature="0" />
    </g>
    <g
       style="fill:#008484;fill-opacity:0;stroke:#008484;stroke-width:60;stroke-linecap:round;stroke-linejoin:round;stroke-opacity:1"
       id="g12297">
      <path
         d="m 75660,24500 -40,-30 h -70 l -80,30 -40,40 -30,50 -20,100 v 70 l 20,90 30,50 40,50 80,20 h 40 l 70,-20 30,-30 v -160 h -100"
         id="path12291"
         inkscape:connector-curvature="0" />
      <path
         d="m 75900,24970 v -500 l 290,500 v -500"
         id="path12293"
         inkscape:connector-curvature="0" />
      <path
         d="m 76430,24970 v -500 h 120 l 70,30 40,40 30,50 20,100 v 70 l -20,90 -30,50 -40,50 -70,20 h -120"
         id="path12295"
         inkscape:connector-curvature="0" />
    </g>
  </g>
  <g
     style="fill:#008400;fill-opacity:0;stroke:#008400;stroke-width:60;stroke-linecap:round;stroke-linejoin:round;stroke-opacity:1"
     id="g12305"
     transform="matrix(1.3,0,0,1.3,-79804.601,-12718.266)">
    <path
       d="m 76000,17500 h 1000"
       id="path12301"
       inkscape:connector-curvature="0" />
    <path
       d="m 80500,17500 h 1500"
       id="path12303"
       inkscape:connector-curvature="0" />
  </g>
  <g
     style="fill:#008400;fill-opacity:0;stroke:#008400;stroke-width:0;stroke-linecap:round;stroke-linejoin:round;stroke-opacity:1"
     id="g12361"
     transform="matrix(1.3,0,0,1.3,-79804.601,-12718.266)">
    <g
       id="g12307" />
    <g
       style="fill:#840000;fill-opacity:0;stroke:#840000;stroke-width:0;stroke-linecap:round;stroke-linejoin:round;stroke-opacity:1"
       id="g12309" />
    <g
       style="fill:#840000;fill-opacity:0;stroke:#840000;stroke-width:60;stroke-linecap:round;stroke-linejoin:round;stroke-opacity:1"
       id="g12315">
      <circle
         cx="77000"
         cy="14200"
         r="300"
         id="circle12311" />
      <path
         d="m 77000,14500 v 1000"
         id="path12313"
         inkscape:connector-curvature="0" />
    </g>
    <g
       style="fill:#008484;fill-opacity:0;stroke:#008484;stroke-width:60;stroke-linecap:round;stroke-linejoin:round;stroke-opacity:1"
       id="g12359">
      <path
         d="m 73420,13240 -160,-240"
         id="path12317"
         inkscape:connector-curvature="0" />
      <path
         d="m 73140,13240 v -500 h 190 l 50,30 20,20 20,50 v 70 l -20,50 -20,20 -50,20 h -190"
         id="path12319"
         inkscape:connector-curvature="0" />
      <path
         d="m 73640,12980 h 160"
         id="path12321"
         inkscape:connector-curvature="0" />
      <path
         d="m 73880,13240 h -240 v -500 h 240"
         id="path12323"
         inkscape:connector-curvature="0" />
      <path
         d="m 74260,12980 h -170"
         id="path12325"
         inkscape:connector-curvature="0" />
      <path
         d="m 74090,13240 v -500 h 240"
         id="path12327"
         inkscape:connector-curvature="0" />
      <path
         d="m 74400,13290 h 380"
         id="path12329"
         inkscape:connector-curvature="0" />
      <path
         d="m 74880,13100 h 230"
         id="path12331"
         inkscape:connector-curvature="0" />
      <path
         d="m 74830,13240 160,-500 170,500"
         id="path12333"
         inkscape:connector-curvature="0" />
      <path
         d="m 75330,13240 v -500 h 120 l 70,30 50,40 20,50 20,100 v 70 l -20,90 -20,50 -50,50 -70,20 h -120"
         id="path12335"
         inkscape:connector-curvature="0" />
      <path
         d="m 75970,12740 v 360 l -20,70 -50,50 -70,20 h -50"
         id="path12337"
         inkscape:connector-curvature="0" />
      <path
         d="m 76470,13240 h -280"
         id="path12339"
         inkscape:connector-curvature="0" />
      <path
         d="m 76330,13240 v -500 l -50,70 -50,50 -40,20"
         id="path12341"
         inkscape:connector-curvature="0" />
      <path
         d="m 77070,12980 h 380"
         id="path12343"
         inkscape:connector-curvature="0" />
      <path
         d="m 77450,13120 h -380"
         id="path12345"
         inkscape:connector-curvature="0" />
      <path
         d="m 78350,13240 -160,-240"
         id="path12347"
         inkscape:connector-curvature="0" />
      <path
         d="m 78070,13240 v -500 h 190 l 40,30 30,20 20,50 v 70 l -20,50 -30,20 -40,20 h -190"
         id="path12349"
         inkscape:connector-curvature="0" />
      <path
         d="m 78800,13240 h -230 v -500"
         id="path12351"
         inkscape:connector-curvature="0" />
      <path
         d="m 79070,12740 h 90 l 50,30 50,40 20,100 v 160 l -20,100 -50,50 -50,20 h -90 l -50,-20 -50,-50 -20,-100 v -160 l 20,-100 50,-40 50,-30"
         id="path12353"
         inkscape:connector-curvature="0" />
      <path
         d="m 79760,13240 h -290"
         id="path12355"
         inkscape:connector-curvature="0" />
      <path
         d="m 79610,13240 v -500 l -40,70 -50,50 -50,20"
         id="path12357"
         inkscape:connector-curvature="0" />
    </g>
  </g>
  <g
     style="fill:#008484;fill-opacity:0;stroke:#008484;stroke-width:0;stroke-linecap:round;stroke-linejoin:round;stroke-opacity:1"
     id="g12421"
     transform="matrix(1.3,0,0,1.3,-79804.601,-12718.266)">
    <g
       id="g12363" />
    <g
       style="fill:#840000;fill-opacity:0;stroke:#840000;stroke-width:0;stroke-linecap:round;stroke-linejoin:round;stroke-opacity:1"
       id="g12365" />
    <g
       style="fill:#840000;fill-opacity:0;stroke:#840000;stroke-width:60;stroke-linecap:round;stroke-linejoin:round;stroke-opacity:1"
       id="g12371">
      <circle
         cx="82000"
         cy="12200"
         r="300"
         id="circle12367" />
      <path
         d="m 82000,12500 v 1000"
         id="path12369"
         inkscape:connector-curvature="0" />
    </g>
    <g
       style="fill:#008484;fill-opacity:0;stroke:#008484;stroke-width:60;stroke-linecap:round;stroke-linejoin:round;stroke-opacity:1"
       id="g12419">
      <path
         d="m 77930,11240 -170,-240"
         id="path12373"
         inkscape:connector-curvature="0" />
      <path
         d="m 77640,11240 v -500 h 190 l 50,30 20,20 30,50 v 70 l -30,50 -20,20 -50,20 h -190"
         id="path12375"
         inkscape:connector-curvature="0" />
      <path
         d="m 78140,10980 h 170"
         id="path12377"
         inkscape:connector-curvature="0" />
      <path
         d="m 78380,11240 h -240 v -500 h 240"
         id="path12379"
         inkscape:connector-curvature="0" />
      <path
         d="m 78760,10980 h -170"
         id="path12381"
         inkscape:connector-curvature="0" />
      <path
         d="m 78590,11240 v -500 h 240"
         id="path12383"
         inkscape:connector-curvature="0" />
      <path
         d="m 78900,11290 h 380"
         id="path12385"
         inkscape:connector-curvature="0" />
      <path
         d="m 79500,10740 h 90 l 50,30 50,40 20,100 v 160 l -20,100 -50,50 -50,20 h -90 l -50,-20 -50,-50 -20,-100 v -160 l 20,-100 50,-40 50,-30"
         id="path12387"
         inkscape:connector-curvature="0" />
      <path
         d="m 79930,10740 v 410 l 20,40 20,30 50,20 h 100 l 50,-20 20,-30 20,-40 v -410"
         id="path12389"
         inkscape:connector-curvature="0" />
      <path
         d="m 80380,10740 h 290"
         id="path12391"
         inkscape:connector-curvature="0" />
      <path
         d="m 80520,11240 v -500"
         id="path12393"
         inkscape:connector-curvature="0" />
      <path
         d="m 81090,11240 h -280"
         id="path12395"
         inkscape:connector-curvature="0" />
      <path
         d="m 80950,11240 v -500 l -50,70 -40,50 -50,20"
         id="path12397"
         inkscape:connector-curvature="0" />
      <path
         d="m 81690,10980 h 380"
         id="path12399"
         inkscape:connector-curvature="0" />
      <path
         d="m 82070,11120 h -380"
         id="path12401"
         inkscape:connector-curvature="0" />
      <path
         d="m 82970,11240 -160,-240"
         id="path12403"
         inkscape:connector-curvature="0" />
      <path
         d="m 82690,11240 v -500 h 190 l 50,30 20,20 20,50 v 70 l -20,50 -20,20 -50,20 h -190"
         id="path12405"
         inkscape:connector-curvature="0" />
      <path
         d="m 83190,11240 v -500"
         id="path12407"
         inkscape:connector-curvature="0" />
      <path
         d="m 83190,10980 h 280"
         id="path12409"
         inkscape:connector-curvature="0" />
      <path
         d="m 83470,11240 v -500"
         id="path12411"
         inkscape:connector-curvature="0" />
      <path
         d="m 83710,11240 v -500"
         id="path12413"
         inkscape:connector-curvature="0" />
      <path
         d="m 84210,11240 h -280"
         id="path12415"
         inkscape:connector-curvature="0" />
      <path
         d="m 84070,11240 v -500 l -50,70 -50,50 -40,20"
         id="path12417"
         inkscape:connector-curvature="0" />
    </g>
  </g>
  <g
     style="fill:#008484;fill-opacity:0;stroke:#008484;stroke-width:0;stroke-linecap:round;stroke-linejoin:round;stroke-opacity:1"
     id="g12473"
     transform="matrix(1.3,0,0,1.3,-79804.601,-12718.266)">
    <g
       id="g12423" />
    <g
       style="fill:#840000;fill-opacity:0;stroke:#840000;stroke-width:0;stroke-linecap:round;stroke-linejoin:round;stroke-opacity:1"
       id="g12425" />
    <g
       style="fill:#840000;fill-opacity:0;stroke:#840000;stroke-width:60;stroke-linecap:round;stroke-linejoin:round;stroke-opacity:1"
       id="g12431">
      <circle
         cx="89500"
         cy="14200"
         r="300"
         id="circle12427" />
      <path
         d="m 89500,14500 v 1000"
         id="path12429"
         inkscape:connector-curvature="0" />
    </g>
    <g
       style="fill:#008484;fill-opacity:0;stroke:#008484;stroke-width:60;stroke-linecap:round;stroke-linejoin:round;stroke-opacity:1"
       id="g12471">
      <path
         d="m 85920,13240 -160,-240"
         id="path12433"
         inkscape:connector-curvature="0" />
      <path
         d="m 85640,13240 v -500 h 190 l 50,30 20,20 20,50 v 70 l -20,50 -20,20 -50,20 h -190"
         id="path12435"
         inkscape:connector-curvature="0" />
      <path
         d="m 86140,12980 h 160"
         id="path12437"
         inkscape:connector-curvature="0" />
      <path
         d="m 86380,13240 h -240 v -500 h 240"
         id="path12439"
         inkscape:connector-curvature="0" />
      <path
         d="m 86760,12980 h -170"
         id="path12441"
         inkscape:connector-curvature="0" />
      <path
         d="m 86590,13240 v -500 h 240"
         id="path12443"
         inkscape:connector-curvature="0" />
      <path
         d="m 86900,13290 h 380"
         id="path12445"
         inkscape:connector-curvature="0" />
      <path
         d="m 87380,13100 h 230"
         id="path12447"
         inkscape:connector-curvature="0" />
      <path
         d="m 87330,13240 160,-500 170,500"
         id="path12449"
         inkscape:connector-curvature="0" />
      <path
         d="m 87830,13240 v -500 h 120 l 70,30 50,40 20,50 20,100 v 70 l -20,90 -20,50 -50,50 -70,20 h -120"
         id="path12451"
         inkscape:connector-curvature="0" />
      <path
         d="m 88470,12740 v 360 l -20,70 -50,50 -70,20 h -50"
         id="path12453"
         inkscape:connector-curvature="0" />
      <path
         d="m 88690,12790 20,-20 50,-30 h 120 l 40,30 30,20 20,50 v 40 l -20,80 -290,280 h 310"
         id="path12455"
         inkscape:connector-curvature="0" />
      <path
         d="m 89570,12980 h 380"
         id="path12457"
         inkscape:connector-curvature="0" />
      <path
         d="m 89950,13120 h -380"
         id="path12459"
         inkscape:connector-curvature="0" />
      <path
         d="m 90850,13240 -160,-240"
         id="path12461"
         inkscape:connector-curvature="0" />
      <path
         d="m 90570,13240 v -500 h 190 l 40,30 30,20 20,50 v 70 l -20,50 -30,20 -40,20 h -190"
         id="path12463"
         inkscape:connector-curvature="0" />
      <path
         d="m 91300,13240 h -230 v -500"
         id="path12465"
         inkscape:connector-curvature="0" />
      <path
         d="m 91570,12740 h 90 l 50,30 50,40 20,100 v 160 l -20,100 -50,50 -50,20 h -90 l -50,-20 -50,-50 -20,-100 v -160 l 20,-100 50,-40 50,-30"
         id="path12467"
         inkscape:connector-curvature="0" />
      <path
         d="m 91970,12790 20,-20 50,-30 h 120 l 50,30 20,20 30,50 v 40 l -30,80 -280,280 h 310"
         id="path12469"
         inkscape:connector-curvature="0" />
    </g>
  </g>
  <g
     style="fill:#008484;fill-opacity:0;stroke:#008484;stroke-width:0;stroke-linecap:round;stroke-linejoin:round;stroke-opacity:1"
     id="g12529"
     transform="matrix(1.3,0,0,1.3,-79804.601,-12718.266)">
    <g
       id="g12475" />
    <g
       style="fill:#840000;fill-opacity:0;stroke:#840000;stroke-width:0;stroke-linecap:round;stroke-linejoin:round;stroke-opacity:1"
       id="g12477" />
    <g
       style="fill:#840000;fill-opacity:0;stroke:#840000;stroke-width:60;stroke-linecap:round;stroke-linejoin:round;stroke-opacity:1"
       id="g12483">
      <circle
         cx="95000"
         cy="12200"
         r="300"
         id="circle12479" />
      <path
         d="m 95000,12500 v 1000"
         id="path12481"
         inkscape:connector-curvature="0" />
    </g>
    <g
       style="fill:#008484;fill-opacity:0;stroke:#008484;stroke-width:60;stroke-linecap:round;stroke-linejoin:round;stroke-opacity:1"
       id="g12527">
      <path
         d="m 90930,11240 -170,-240"
         id="path12485"
         inkscape:connector-curvature="0" />
      <path
         d="m 90640,11240 v -500 h 190 l 50,30 20,20 30,50 v 70 l -30,50 -20,20 -50,20 h -190"
         id="path12487"
         inkscape:connector-curvature="0" />
      <path
         d="m 91140,10980 h 170"
         id="path12489"
         inkscape:connector-curvature="0" />
      <path
         d="m 91380,11240 h -240 v -500 h 240"
         id="path12491"
         inkscape:connector-curvature="0" />
      <path
         d="m 91760,10980 h -170"
         id="path12493"
         inkscape:connector-curvature="0" />
      <path
         d="m 91590,11240 v -500 h 240"
         id="path12495"
         inkscape:connector-curvature="0" />
      <path
         d="m 91900,11290 h 380"
         id="path12497"
         inkscape:connector-curvature="0" />
      <path
         d="m 92500,10740 h 90 l 50,30 50,40 20,100 v 160 l -20,100 -50,50 -50,20 h -90 l -50,-20 -50,-50 -20,-100 v -160 l 20,-100 50,-40 50,-30"
         id="path12499"
         inkscape:connector-curvature="0" />
      <path
         d="m 92930,10740 v 410 l 20,40 20,30 50,20 h 100 l 50,-20 20,-30 20,-40 v -410"
         id="path12501"
         inkscape:connector-curvature="0" />
      <path
         d="m 93380,10740 h 290"
         id="path12503"
         inkscape:connector-curvature="0" />
      <path
         d="m 93520,11240 v -500"
         id="path12505"
         inkscape:connector-curvature="0" />
      <path
         d="m 93810,10790 20,-20 50,-30 h 120 l 50,30 20,20 20,50 v 40 l -20,80 -290,280 h 310"
         id="path12507"
         inkscape:connector-curvature="0" />
      <path
         d="m 94690,10980 h 380"
         id="path12509"
         inkscape:connector-curvature="0" />
      <path
         d="m 95070,11120 h -380"
         id="path12511"
         inkscape:connector-curvature="0" />
      <path
         d="m 95970,11240 -160,-240"
         id="path12513"
         inkscape:connector-curvature="0" />
      <path
         d="m 95690,11240 v -500 h 190 l 50,30 20,20 20,50 v 70 l -20,50 -20,20 -50,20 h -190"
         id="path12515"
         inkscape:connector-curvature="0" />
      <path
         d="m 96190,11240 v -500"
         id="path12517"
         inkscape:connector-curvature="0" />
      <path
         d="m 96190,10980 h 280"
         id="path12519"
         inkscape:connector-curvature="0" />
      <path
         d="m 96470,11240 v -500"
         id="path12521"
         inkscape:connector-curvature="0" />
      <path
         d="m 96710,11240 v -500"
         id="path12523"
         inkscape:connector-curvature="0" />
      <path
         d="m 96930,10790 20,-20 50,-30 h 120 l 50,30 20,20 20,50 v 40 l -20,80 -290,280 h 310"
         id="path12525"
         inkscape:connector-curvature="0" />
    </g>
  </g>
  <g
     style="fill:#008400;fill-opacity:0;stroke:#008400;stroke-width:60;stroke-linecap:round;stroke-linejoin:round;stroke-opacity:1"
     id="g12535"
     transform="matrix(1.3,0,0,1.3,-79804.601,-12718.266)">
    <path
       d="m 94000,17500 h 1000"
       id="path12531"
       inkscape:connector-curvature="0" />
    <path
       d="m 89500,15500 v 2000"
       id="path12533"
       inkscape:connector-curvature="0" />
  </g>
  <g
     style="fill:#008400;fill-opacity:1;stroke:#008400;stroke-width:100;stroke-linecap:round;stroke-linejoin:round;stroke-opacity:1"
     id="g12541"
     transform="matrix(1.3,0,0,1.3,-79804.601,-12718.266)">
    <circle
       cx="89500"
       cy="17500"
       r="200"
       id="circle12539" />
  </g>
  <g
     style="fill:#008400;fill-opacity:0;stroke:#008400;stroke-width:60;stroke-linecap:round;stroke-linejoin:round;stroke-opacity:1"
     id="g12549"
     transform="matrix(1.3,0,0,1.3,-79804.601,-12718.266)">
    <path
       d="m 89500,17500 h 1500"
       id="path12545"
       inkscape:connector-curvature="0" />
    <path
       d="m 82000,13500 v 4000"
       id="path12547"
       inkscape:connector-curvature="0" />
  </g>
  <g
     style="fill:#008400;fill-opacity:1;stroke:#008400;stroke-width:100;stroke-linecap:round;stroke-linejoin:round;stroke-opacity:1"
     id="g12555"
     transform="matrix(1.3,0,0,1.3,-79804.601,-12718.266)">
    <circle
       cx="82000"
       cy="17500"
       r="200"
       id="circle12553" />
  </g>
  <g
     style="fill:#008400;fill-opacity:0;stroke:#008400;stroke-width:60;stroke-linecap:round;stroke-linejoin:round;stroke-opacity:1"
     id="g12561"
     transform="matrix(1.3,0,0,1.3,-79804.601,-12718.266)">
    <path
       d="m 77000,15500 v 2000"
       id="path12559"
       inkscape:connector-curvature="0" />
  </g>
  <g
     style="fill:#008400;fill-opacity:1;stroke:#008400;stroke-width:100;stroke-linecap:round;stroke-linejoin:round;stroke-opacity:1"
     id="g12567"
     transform="matrix(1.3,0,0,1.3,-79804.601,-12718.266)">
    <circle
       cx="77000"
       cy="17500"
       r="200"
       id="circle12565" />
  </g>
  <g
     style="fill:#008400;fill-opacity:0;stroke:#008400;stroke-width:60;stroke-linecap:round;stroke-linejoin:round;stroke-opacity:1"
     id="g12573"
     transform="matrix(1.3,0,0,1.3,-79804.601,-12718.266)">
    <path
       d="m 77000,17500 h 500"
       id="path12571"
       inkscape:connector-curvature="0" />
  </g>
  <g
     style="fill:#008400;fill-opacity:0;stroke:#008400;stroke-width:0;stroke-linecap:round;stroke-linejoin:round;stroke-opacity:1"
     id="g12619"
     transform="matrix(1.3,0,0,1.3,-79804.601,-12718.266)">
    <g
       id="g12575" />
    <g
       style="fill:#840000;fill-opacity:0;stroke:#840000;stroke-width:0;stroke-linecap:round;stroke-linejoin:round;stroke-opacity:1"
       id="g12577" />
    <g
       style="fill:#840000;fill-opacity:1;stroke:#840000;stroke-width:60;stroke-linecap:round;stroke-linejoin:round;stroke-opacity:1"
       id="g12583">
      <rect
         x="92600"
         y="16600"
         width="100"
         height="1800"
         rx="0"
         id="rect12579" />
      <rect
         x="92270"
         y="16920"
         width="200"
         height="1200"
         rx="0"
         id="rect12581" />
    </g>
    <g
       style="fill:#840000;fill-opacity:0;stroke:#840000;stroke-width:60;stroke-linecap:round;stroke-linejoin:round;stroke-opacity:1"
       id="g12589">
      <path
         style="fill:none;fill-opacity:0;stroke:#840000;stroke-width:60;stroke-linecap:round;stroke-linejoin:round;stroke-opacity:1"
         d="m 92300,17500 h -300 z"
         id="path12585"
         inkscape:connector-curvature="0" />
      <path
         style="fill:none;fill-opacity:0;stroke:#840000;stroke-width:60;stroke-linecap:round;stroke-linejoin:round;stroke-opacity:1"
         d="m 92700,17500 h 300 z"
         id="path12587"
         inkscape:connector-curvature="0" />
    </g>
    <g
       style="fill:#840000;fill-opacity:0;stroke:#840000;stroke-width:100;stroke-linecap:round;stroke-linejoin:round;stroke-opacity:1"
       id="g12595">
      <path
         style="fill:none;fill-opacity:0;stroke:#840000;stroke-width:100;stroke-linecap:round;stroke-linejoin:round;stroke-opacity:1"
         d="m 93350,17300 v -400 z"
         id="path12591"
         inkscape:connector-curvature="0" />
      <path
         style="fill:none;fill-opacity:0;stroke:#840000;stroke-width:100;stroke-linecap:round;stroke-linejoin:round;stroke-opacity:1"
         d="m 93550,17100 h -400 z"
         id="path12593"
         inkscape:connector-curvature="0" />
    </g>
    <g
       style="fill:#840000;fill-opacity:0;stroke:#840000;stroke-width:60;stroke-linecap:round;stroke-linejoin:round;stroke-opacity:1"
       id="g12601">
      <path
         d="m 93000,17500 h 1000"
         id="path12597"
         inkscape:connector-curvature="0" />
      <path
         d="M 92000,17500 H 91000"
         id="path12599"
         inkscape:connector-curvature="0" />
    </g>
    <g
       style="fill:#008484;fill-opacity:0;stroke:#008484;stroke-width:60;stroke-linecap:round;stroke-linejoin:round;stroke-opacity:1"
       id="g12617">
      <path
         d="m 91580,15550 170,500 160,-500"
         id="path12603"
         inkscape:connector-curvature="0" />
      <path
         d="m 92080,16050 v -330"
         id="path12605"
         inkscape:connector-curvature="0" />
      <path
         d="m 92080,15810 20,-40 30,-30 40,-20 h 50"
         id="path12607"
         inkscape:connector-curvature="0" />
      <path
         d="m 92580,16030 -50,20 h -90 l -50,-20 -30,-50 v -190 l 30,-50 50,-20 h 90 l 50,20 20,50 v 50 l -240,40"
         id="path12609"
         inkscape:connector-curvature="0" />
      <path
         d="m 92750,15720 h 190"
         id="path12611"
         inkscape:connector-curvature="0" />
      <path
         d="m 92820,16050 v -430 l 20,-40 50,-30 h 50"
         id="path12613"
         inkscape:connector-curvature="0" />
      <path
         d="m 93080,15600 20,-20 50,-30 h 120 l 50,30 20,20 20,50 v 40 l -20,80 -290,280 h 310"
         id="path12615"
         inkscape:connector-curvature="0" />
    </g>
  </g>
  <g
     style="fill:#008484;fill-opacity:0;stroke:#008484;stroke-width:0;stroke-linecap:round;stroke-linejoin:round;stroke-opacity:1"
     id="g12661"
     transform="matrix(1.3,0,0,1.3,-79804.601,-12718.266)">
    <g
       id="g12621" />
    <g
       style="fill:#840000;fill-opacity:0;stroke:#840000;stroke-width:0;stroke-linecap:round;stroke-linejoin:round;stroke-opacity:1"
       id="g12623" />
    <g
       style="fill:#840000;fill-opacity:0;stroke:#840000;stroke-width:100;stroke-linecap:round;stroke-linejoin:round;stroke-opacity:1"
       id="g12627">
      <rect
         x="81600"
         y="19500"
         width="800"
         height="2000"
         rx="0"
         id="rect12625" />
    </g>
    <g
       style="fill:#840000;fill-opacity:0;stroke:#840000;stroke-width:60;stroke-linecap:round;stroke-linejoin:round;stroke-opacity:1"
       id="g12633">
      <path
         d="m 82000,21500 v 500"
         id="path12629"
         inkscape:connector-curvature="0" />
      <path
         d="m 82000,19500 v -500"
         id="path12631"
         inkscape:connector-curvature="0" />
    </g>
    <g
       style="fill:#008484;fill-opacity:0;stroke:#008484;stroke-width:60;stroke-linecap:round;stroke-linejoin:round;stroke-opacity:1"
       id="g12659">
      <path
         d="m 83130,20230 -160,-240"
         id="path12635"
         inkscape:connector-curvature="0" />
      <path
         d="m 82850,20230 v -500 h 190 l 40,30 30,20 20,50 v 70 l -20,50 -30,20 -40,20 h -190"
         id="path12637"
         inkscape:connector-curvature="0" />
      <path
         d="m 83610,20230 h -290"
         id="path12639"
         inkscape:connector-curvature="0" />
      <path
         d="m 83470,20230 v -500 l -50,70 -50,50 -50,20"
         id="path12641"
         inkscape:connector-curvature="0" />
      <path
         d="m 83100,21140 h -280"
         id="path12643"
         inkscape:connector-curvature="0" />
      <path
         d="m 82960,21140 v -500 l -50,70 -50,50 -40,20"
         id="path12645"
         inkscape:connector-curvature="0" />
      <path
         d="m 83320,21090 20,30 -20,20 -30,-20 30,-30 v 50"
         id="path12647"
         inkscape:connector-curvature="0" />
      <path
         d="m 83820,21140 h -290"
         id="path12649"
         inkscape:connector-curvature="0" />
      <path
         d="m 83670,21140 v -500 l -50,70 -40,50 -50,20"
         id="path12651"
         inkscape:connector-curvature="0" />
      <path
         d="m 84030,21140 v -500"
         id="path12653"
         inkscape:connector-curvature="0" />
      <path
         d="m 84320,21140 -220,-280"
         id="path12655"
         inkscape:connector-curvature="0" />
      <path
         d="m 84320,20640 -290,290"
         id="path12657"
         inkscape:connector-curvature="0" />
    </g>
  </g>
  <g
     style="fill:#008484;fill-opacity:0;stroke:#008484;stroke-width:0;stroke-linecap:round;stroke-linejoin:round;stroke-opacity:1"
     id="g12699"
     transform="matrix(1.3,0,0,1.3,-79804.601,-12718.266)">
    <g
       id="g12663" />
    <g
       style="fill:#840000;fill-opacity:0;stroke:#840000;stroke-width:0;stroke-linecap:round;stroke-linejoin:round;stroke-opacity:1"
       id="g12665" />
    <g
       style="fill:#840000;fill-opacity:0;stroke:#840000;stroke-width:100;stroke-linecap:round;stroke-linejoin:round;stroke-opacity:1"
       id="g12669">
      <rect
         x="94600"
         y="19500"
         width="800"
         height="2000"
         rx="0"
         id="rect12667" />
    </g>
    <g
       style="fill:#840000;fill-opacity:0;stroke:#840000;stroke-width:60;stroke-linecap:round;stroke-linejoin:round;stroke-opacity:1"
       id="g12675">
      <path
         d="m 95000,21500 v 500"
         id="path12671"
         inkscape:connector-curvature="0" />
      <path
         d="m 95000,19500 v -500"
         id="path12673"
         inkscape:connector-curvature="0" />
    </g>
    <g
       style="fill:#008484;fill-opacity:0;stroke:#008484;stroke-width:60;stroke-linecap:round;stroke-linejoin:round;stroke-opacity:1"
       id="g12697">
      <path
         d="m 96130,20230 -160,-240"
         id="path12677"
         inkscape:connector-curvature="0" />
      <path
         d="m 95850,20230 v -500 h 190 l 40,30 30,20 20,50 v 70 l -20,50 -30,20 -40,20 h -190"
         id="path12679"
         inkscape:connector-curvature="0" />
      <path
         d="m 96300,19730 h 310 l -170,190 h 70 l 50,30 20,20 30,50 v 120 l -30,40 -20,30 -50,20 h -140 l -50,-20 -20,-30"
         id="path12681"
         inkscape:connector-curvature="0" />
      <path
         d="m 95820,20690 20,-20 50,-30 h 120 l 40,30 30,20 20,50 v 40 l -20,80 -290,280 h 310"
         id="path12683"
         inkscape:connector-curvature="0" />
      <path
         d="m 96320,21090 20,30 -20,20 -30,-20 30,-30 v 50"
         id="path12685"
         inkscape:connector-curvature="0" />
      <path
         d="m 96770,20810 v 330"
         id="path12687"
         inkscape:connector-curvature="0" />
      <path
         d="m 96650,20620 -120,350 h 310"
         id="path12689"
         inkscape:connector-curvature="0" />
      <path
         d="m 97030,21140 v -500"
         id="path12691"
         inkscape:connector-curvature="0" />
      <path
         d="m 97320,21140 -220,-280"
         id="path12693"
         inkscape:connector-curvature="0" />
      <path
         d="m 97320,20640 -290,290"
         id="path12695"
         inkscape:connector-curvature="0" />
    </g>
  </g>
  <g
     style="fill:#008400;fill-opacity:0;stroke:#008400;stroke-width:60;stroke-linecap:round;stroke-linejoin:round;stroke-opacity:1"
     id="g12707"
     transform="matrix(1.3,0,0,1.3,-79804.601,-12718.266)">
    <path
       d="M 76000,23000 V 17500"
       id="path12701"
       inkscape:connector-curvature="0" />
    <path
       d="m 95000,22000 v 1000"
       id="path12703"
       inkscape:connector-curvature="0" />
    <path
       d="M 95000,23000 H 82000"
       id="path12705"
       inkscape:connector-curvature="0" />
  </g>
  <g
     style="fill:#008400;fill-opacity:1;stroke:#008400;stroke-width:100;stroke-linecap:round;stroke-linejoin:round;stroke-opacity:1"
     id="g12713"
     transform="matrix(1.3,0,0,1.3,-79804.601,-12718.266)">
    <circle
       cx="76000"
       cy="23000"
       r="200"
       id="circle12711" />
  </g>
  <g
     style="fill:#008400;fill-opacity:0;stroke:#008400;stroke-width:60;stroke-linecap:round;stroke-linejoin:round;stroke-opacity:1"
     id="g12719"
     transform="matrix(1.3,0,0,1.3,-79804.601,-12718.266)">
    <path
       d="m 82000,22000 v 1000"
       id="path12717"
       inkscape:connector-curvature="0" />
  </g>
  <g
     style="fill:#008400;fill-opacity:1;stroke:#008400;stroke-width:100;stroke-linecap:round;stroke-linejoin:round;stroke-opacity:1"
     id="g12725"
     transform="matrix(1.3,0,0,1.3,-79804.601,-12718.266)">
    <circle
       cx="82000"
       cy="23000"
       r="200"
       id="circle12723" />
  </g>
  <g
     style="fill:#008400;fill-opacity:0;stroke:#008400;stroke-width:60;stroke-linecap:round;stroke-linejoin:round;stroke-opacity:1"
     id="g12735"
     transform="matrix(1.3,0,0,1.3,-79804.601,-12718.266)">
    <path
       d="M 82000,23000 H 76000"
       id="path12729"
       inkscape:connector-curvature="0" />
    <path
       d="M 82000,19000 V 17500"
       id="path12731"
       inkscape:connector-curvature="0" />
    <path
       d="M 95000,19000 V 17500"
       id="path12733"
       inkscape:connector-curvature="0" />
  </g>
  <g
     style="fill:#008400;fill-opacity:1;stroke:#008400;stroke-width:100;stroke-linecap:round;stroke-linejoin:round;stroke-opacity:1"
     id="g12741"
     transform="matrix(1.3,0,0,1.3,-79804.601,-12718.266)">
    <circle
       cx="95000"
       cy="17500"
       r="200"
       id="circle12739" />
  </g>
  <g
     style="fill:#008400;fill-opacity:1;stroke:#008400;stroke-width:0;stroke-linecap:round;stroke-linejoin:round;stroke-opacity:1"
     id="g12779"
     transform="matrix(1.3,0,0,1.3,-79804.601,-12718.266)">
    <g
       id="g12743" />
    <g
       style="fill:#840000;fill-opacity:1;stroke:#840000;stroke-width:0;stroke-linecap:round;stroke-linejoin:round;stroke-opacity:1"
       id="g12745" />
    <g
       style="fill:#ffffc2;fill-opacity:1;stroke:#ffffc2;stroke-width:0;stroke-linecap:round;stroke-linejoin:round;stroke-opacity:1"
       id="g12747" />
    <g
       style="fill:#ffffc2;fill-opacity:0.6;stroke:#ffffc2;stroke-width:0;stroke-linecap:round;stroke-linejoin:round;stroke-opacity:1"
       id="g12751">
      <path
         style="fill:#ffffc2;fill-opacity:0.6;fill-rule:evenodd;stroke:#ffffc2;stroke-width:0;stroke-linecap:round;stroke-linejoin:round;stroke-opacity:1"
         d="m 84050,16750 -300,-300 700,-700 300,300 z"
         id="path12749"
         inkscape:connector-curvature="0" />
    </g>
    <g
       style="fill:#840000;fill-opacity:0.6;stroke:#840000;stroke-width:0;stroke-linecap:round;stroke-linejoin:round;stroke-opacity:1"
       id="g12753" />
    <g
       style="fill:#840000;fill-opacity:0;stroke:#840000;stroke-width:60;stroke-linecap:round;stroke-linejoin:round;stroke-opacity:1"
       id="g12757">
      <path
         style="fill:none;fill-opacity:0;stroke:#840000;stroke-width:60;stroke-linecap:round;stroke-linejoin:round;stroke-opacity:1"
         d="m 84050,16750 -300,-300 700,-700 300,300 z"
         id="path12755"
         inkscape:connector-curvature="0" />
    </g>
    <g
       style="fill:#840000;fill-opacity:1;stroke:#840000;stroke-width:60;stroke-linecap:round;stroke-linejoin:round;stroke-opacity:1"
       id="g12761">
      <path
         style="fill:#840000;fill-opacity:1;fill-rule:evenodd;stroke:#840000;stroke-width:60;stroke-linecap:round;stroke-linejoin:round;stroke-opacity:1"
         d="m 84000,16700 -500,300 300,-500 z"
         id="path12759"
         inkscape:connector-curvature="0" />
    </g>
    <g
       style="fill:#840000;fill-opacity:0;stroke:#840000;stroke-width:60;stroke-linecap:round;stroke-linejoin:round;stroke-opacity:1"
       id="g12765">
      <path
         d="m 83500,17000 v 0"
         id="path12763"
         inkscape:connector-curvature="0" />
    </g>
    <g
       style="fill:#008484;fill-opacity:0;stroke:#008484;stroke-width:60;stroke-linecap:round;stroke-linejoin:round;stroke-opacity:1"
       id="g12777">
      <path
         d="m 85430,16690 h -290"
         id="path12767"
         inkscape:connector-curvature="0" />
      <path
         d="m 85280,16690 v -500 l -40,70 -50,50 -50,20"
         id="path12769"
         inkscape:connector-curvature="0" />
      <path
         d="m 85640,16640 20,30 -20,20 -20,-20 20,-30 v 50"
         id="path12771"
         inkscape:connector-curvature="0" />
      <path
         d="m 85860,16240 20,-20 50,-30 h 120 l 40,30 30,20 20,50 v 40 l -20,80 -290,280 h 310"
         id="path12773"
         inkscape:connector-curvature="0" />
      <path
         d="m 86280,16190 170,500 170,-500"
         id="path12775"
         inkscape:connector-curvature="0" />
    </g>
  </g>
  <g
     style="fill:#008400;fill-opacity:0;stroke:#008400;stroke-width:60;stroke-linecap:round;stroke-linejoin:round;stroke-opacity:1"
     id="g12785"
     transform="matrix(1.3,0,0,1.3,-79804.601,-12718.266)">
    <path
       d="m 82000,17500 h 1500"
       id="path12781"
       inkscape:connector-curvature="0" />
    <path
       d="m 83500,17000 v 500"
       id="path12783"
       inkscape:connector-curvature="0" />
  </g>
  <g
     style="fill:#008400;fill-opacity:1;stroke:#008400;stroke-width:100;stroke-linecap:round;stroke-linejoin:round;stroke-opacity:1"
     id="g12791"
     transform="matrix(1.3,0,0,1.3,-79804.601,-12718.266)">
    <circle
       cx="83500"
       cy="17500"
       r="200"
       id="circle12789" />
  </g>
  <g
     style="fill:#008400;fill-opacity:0;stroke:#008400;stroke-width:60;stroke-linecap:round;stroke-linejoin:round;stroke-opacity:1"
     id="g12799"
     transform="matrix(1.3,0,0,1.3,-79804.601,-12718.266)">
    <path
       d="m 83500,17500 h 6000"
       id="path12795"
       inkscape:connector-curvature="0" />
    <path
       d="M 95000,17500 V 13500"
       id="path12797"
       inkscape:connector-curvature="0" />
  </g>
  <g
     style="fill:#008400;fill-opacity:0;stroke:#008400;stroke-width:0;stroke-linecap:round;stroke-linejoin:round;stroke-opacity:1"
     id="g12837"
     transform="matrix(1.3,0,0,1.3,-79804.601,-12718.266)">
    <g
       id="g12801" />
    <g
       style="fill:#840000;fill-opacity:0;stroke:#840000;stroke-width:0;stroke-linecap:round;stroke-linejoin:round;stroke-opacity:1"
       id="g12803" />
    <g
       style="fill:#ffffc2;fill-opacity:0;stroke:#ffffc2;stroke-width:0;stroke-linecap:round;stroke-linejoin:round;stroke-opacity:1"
       id="g12805" />
    <g
       style="fill:#ffffc2;fill-opacity:0.6;stroke:#ffffc2;stroke-width:0;stroke-linecap:round;stroke-linejoin:round;stroke-opacity:1"
       id="g12809">
      <path
         style="fill:#ffffc2;fill-opacity:0.6;fill-rule:evenodd;stroke:#ffffc2;stroke-width:0;stroke-linecap:round;stroke-linejoin:round;stroke-opacity:1"
         d="m 96550,16750 -300,-300 700,-700 300,300 z"
         id="path12807"
         inkscape:connector-curvature="0" />
    </g>
    <g
       style="fill:#840000;fill-opacity:0.6;stroke:#840000;stroke-width:0;stroke-linecap:round;stroke-linejoin:round;stroke-opacity:1"
       id="g12811" />
    <g
       style="fill:#840000;fill-opacity:0;stroke:#840000;stroke-width:60;stroke-linecap:round;stroke-linejoin:round;stroke-opacity:1"
       id="g12815">
      <path
         style="fill:none;fill-opacity:0;stroke:#840000;stroke-width:60;stroke-linecap:round;stroke-linejoin:round;stroke-opacity:1"
         d="m 96550,16750 -300,-300 700,-700 300,300 z"
         id="path12813"
         inkscape:connector-curvature="0" />
    </g>
    <g
       style="fill:#840000;fill-opacity:1;stroke:#840000;stroke-width:60;stroke-linecap:round;stroke-linejoin:round;stroke-opacity:1"
       id="g12819">
      <path
         style="fill:#840000;fill-opacity:1;fill-rule:evenodd;stroke:#840000;stroke-width:60;stroke-linecap:round;stroke-linejoin:round;stroke-opacity:1"
         d="m 96500,16700 -500,300 300,-500 z"
         id="path12817"
         inkscape:connector-curvature="0" />
    </g>
    <g
       style="fill:#840000;fill-opacity:0;stroke:#840000;stroke-width:60;stroke-linecap:round;stroke-linejoin:round;stroke-opacity:1"
       id="g12823">
      <path
         d="m 96000,17000 v 0"
         id="path12821"
         inkscape:connector-curvature="0" />
    </g>
    <g
       style="fill:#008484;fill-opacity:0;stroke:#008484;stroke-width:60;stroke-linecap:round;stroke-linejoin:round;stroke-opacity:1"
       id="g12835">
      <path
         d="m 97640,16240 20,-20 50,-30 h 120 l 50,30 20,20 30,50 v 40 l -30,80 -280,280 h 310"
         id="path12825"
         inkscape:connector-curvature="0" />
      <path
         d="m 98140,16640 20,30 -20,20 -20,-20 20,-30 v 50"
         id="path12827"
         inkscape:connector-curvature="0" />
      <path
         d="m 98590,16360 v 330"
         id="path12829"
         inkscape:connector-curvature="0" />
      <path
         d="m 98470,16170 -110,350 h 300"
         id="path12831"
         inkscape:connector-curvature="0" />
      <path
         d="m 98780,16190 170,500 170,-500"
         id="path12833"
         inkscape:connector-curvature="0" />
    </g>
  </g>
  <g
     style="fill:#008400;fill-opacity:0;stroke:#008400;stroke-width:60;stroke-linecap:round;stroke-linejoin:round;stroke-opacity:1"
     id="g12843"
     transform="matrix(1.3,0,0,1.3,-79804.601,-12718.266)">
    <path
       d="m 96000,17000 v 500"
       id="path12839"
       inkscape:connector-curvature="0" />
    <path
       d="M 96000,17500 H 95000"
       id="path12841"
       inkscape:connector-curvature="0" />
  </g>
</svg>
